# Rhino

g object_1
v -1501.25 24 29959.75
v -1462.625 24 29949
v -1509.375 24 29930.25
v -1470.75 24 29919.75
v -1501.25 0 29959.75
v -1509.375 0 29930.25
v -1462.625 0 29949
v -1470.75 0 29919.75
v -1501.25 24 29959.75
v -1501.25 0 29959.75
v -1462.625 24 29949
v -1462.625 0 29949
v -1462.625 24 29949
v -1462.625 0 29949
v -1470.75 24 29919.75
v -1470.75 0 29919.75
v -1470.75 24 29919.75
v -1470.75 0 29919.75
v -1509.375 24 29930.25
v -1509.375 0 29930.25
v -1509.375 24 29930.25
v -1509.375 0 29930.25
v -1501.25 24 29959.75
v -1501.25 0 29959.75
vn 0 1 0
vn 0 1 0
vn 0 1 0
vn 0 1 0
vn 0 -1 0
vn 0 -1 0
vn 0 -1 0
vn 0 -1 0
vn 0.2680976986885071 0 0.9633917212486267
vn 0.2680976986885071 0 0.9633917212486267
vn 0.2680976986885071 0 0.9633917212486267
vn 0.2680976986885071 0 0.9633917212486267
vn 0.9635279178619385 0 -0.2676077485084534
vn 0.9635279178619385 0 -0.2676077485084534
vn 0.9635279178619385 0 -0.2676077485084534
vn 0.9635279178619385 0 -0.2676077485084534
vn -0.2622965574264526 0 -0.9649873375892639
vn -0.2622965574264526 0 -0.9649873375892639
vn -0.2622965574264526 0 -0.9649873375892639
vn -0.2622965574264526 0 -0.9649873375892639
vn -0.9641100764274597 0 0.2655027806758881
vn -0.9641100764274597 0 0.2655027806758881
vn -0.9641100764274597 0 0.2655027806758881
vn -0.9641100764274597 0 0.2655027806758881
f 1//1 2//2 3//3
f 2//2 4//4 3//3
f 5//5 6//6 7//7
f 6//6 8//8 7//7
f 9//9 10//10 11//11
f 10//10 12//12 11//11
f 13//13 14//14 15//15
f 14//14 16//16 15//15
f 17//17 18//18 19//19
f 18//18 20//20 19//19
f 21//21 22//22 23//23
f 22//22 24//24 23//23
