# Rhino

g object_1
v -23579.625 0 4462
v -23563.5 0 4468
v -23563.5 65 4468
v -23579.625 65 4462
v -23563.5 0 4468
v -23529.25 0 4449
v -23529.25 65 4449
v -23563.5 65 4468
v -23529.25 0 4449
v -23524.5625 0 4434.75
v -23524.5625 65 4434.75
v -23529.25 65 4449
v -23524.5625 0 4434.75
v -23535.25 0 4415
v -23535.25 65 4415
v -23524.5625 65 4434.75
v -23535.25 0 4415
v -23539.1875 0 4417.25
v -23539.1875 65 4417.25
v -23535.25 65 4415
v -23539.1875 0 4417.25
v -23542.5 0 4411.75
v -23542.5 65 4411.75
v -23539.1875 65 4417.25
v -23542.5 0 4411.75
v -23538.125 0 4409.5
v -23538.125 65 4409.5
v -23542.5 65 4411.75
v -23538.125 0 4409.5
v -23554.5 0 4379
v -23554.5 65 4379
v -23538.125 65 4409.5
v -23554.5 0 4379
v -23570.4375 0 4374.75
v -23570.4375 65 4374.75
v -23554.5 65 4379
v -23570.4375 0 4374.75
v -23588.3125 0 4383.25
v -23588.3125 65 4383.25
v -23570.4375 65 4374.75
v -23588.3125 0 4383.25
v -23603.5 0 4377.5
v -23603.5 65 4377.5
v -23588.3125 65 4383.25
v -23603.5 0 4377.5
v -23679 0 4419.25
v -23679 65 4419.25
v -23603.5 65 4377.5
v -23679 0 4419.25
v -23686.0625 0 4439.5
v -23686.0625 65 4439.5
v -23679 65 4419.25
v -23686.0625 0 4439.5
v -23659.4375 0 4488.75
v -23659.4375 65 4488.75
v -23686.0625 65 4439.5
v -23659.4375 0 4488.75
v -23637.875 0 4494
v -23637.875 65 4494
v -23659.4375 65 4488.75
v -23637.875 0 4494
v -23579.625 0 4462
v -23579.625 65 4462
v -23637.875 65 4494
v -23579.625 65 4462
v -23563.5 65 4468
v -23563.5625 65 4467
v -23579.6875 65 4461
v -23529.25 65 4449
v -23530.0625 65 4448.25
v -23524.5625 65 4434.75
v -23525.625 65 4434.75
v -23535.25 65 4415
v -23535.625 65 4416.5
v -23539.1875 65 4417.25
v -23539.5625 65 4418.5
v -23542.5 65 4411.75
v -23543.9375 65 4411.25
v -23538.125 65 4409.5
v -23539.5 65 4409
v -23554.5 65 4379
v -23555.1875 65 4379.75
v -23570.4375 65 4374.75
v -23570.3125 65 4375.75
v -23588.3125 65 4383.25
v -23588.25 65 4384.25
v -23603.5 65 4377.5
v -23603.4375 65 4378.5
v -23679 65 4419.25
v -23678.1875 65 4420
v -23686.0625 65 4439.5
v -23685 65 4439.5
v -23659.4375 65 4488.75
v -23658.75 65 4488
v -23637.875 65 4494
v -23638 65 4493
v -23579.6875 65 4461
v -23563.5625 65 4467
v -23563.5625 62 4467
v -23579.6875 62 4461
v -23563.5625 65 4467
v -23530.0625 65 4448.25
v -23530.0625 62 4448.25
v -23563.5625 62 4467
v -23530.0625 65 4448.25
v -23525.625 65 4434.75
v -23525.625 62 4434.75
v -23530.0625 62 4448.25
v -23525.625 65 4434.75
v -23535.625 65 4416.5
v -23535.625 62 4416.5
v -23525.625 62 4434.75
v -23535.625 65 4416.5
v -23539.5625 65 4418.5
v -23539.5625 62 4418.5
v -23535.625 62 4416.5
v -23539.5625 65 4418.5
v -23543.9375 65 4411.25
v -23543.9375 62 4411.25
v -23539.5625 62 4418.5
v -23543.9375 65 4411.25
v -23539.5 65 4409
v -23539.5 62 4409
v -23543.9375 62 4411.25
v -23539.5 65 4409
v -23555.1875 65 4379.75
v -23555.1875 62 4379.75
v -23539.5 62 4409
v -23555.1875 65 4379.75
v -23570.3125 65 4375.75
v -23570.3125 62 4375.75
v -23555.1875 62 4379.75
v -23570.3125 65 4375.75
v -23588.25 65 4384.25
v -23588.25 62 4384.25
v -23570.3125 62 4375.75
v -23588.25 65 4384.25
v -23603.4375 65 4378.5
v -23603.4375 62 4378.5
v -23588.25 62 4384.25
v -23603.4375 65 4378.5
v -23678.1875 65 4420
v -23678.1875 62 4420
v -23603.4375 62 4378.5
v -23678.1875 65 4420
v -23685 65 4439.5
v -23685 62 4439.5
v -23678.1875 62 4420
v -23685 65 4439.5
v -23658.75 65 4488
v -23658.75 62 4488
v -23685 62 4439.5
v -23658.75 65 4488
v -23638 65 4493
v -23638 62 4493
v -23658.75 62 4488
v -23638 65 4493
v -23579.6875 65 4461
v -23579.6875 62 4461
v -23638 62 4493
v -23525.625 62 4434.75
v -23535.625 62 4416.5
v -23539.5625 62 4418.5
v -23530.0625 62 4448.25
v -23543.9375 62 4411.25
v -23539.5 62 4409
v -23555.1875 62 4379.75
v -23579.6875 62 4461
v -23563.5625 62 4467
v -23570.3125 62 4375.75
v -23588.25 62 4384.25
v -23638 62 4493
v -23603.4375 62 4378.5
v -23678.1875 62 4420
v -23658.75 62 4488
v -23685 62 4439.5
v -23524.5625 0 4434.75
v -23529.25 0 4449
v -23539.1875 0 4417.25
v -23535.25 0 4415
v -23542.5 0 4411.75
v -23579.625 0 4462
v -23554.5 0 4379
v -23538.125 0 4409.5
v -23563.5 0 4468
v -23588.3125 0 4383.25
v -23570.4375 0 4374.75
v -23637.875 0 4494
v -23603.5 0 4377.5
v -23659.4375 0 4488.75
v -23679 0 4419.25
v -23686.0625 0 4439.5
vn -0.348711222410202 0 0.9372302293777466
vn -0.348711222410202 0 0.9372302293777466
vn -0.348711222410202 0 0.9372302293777466
vn -0.348711222410202 0 0.9372302293777466
vn 0.4850824773311615 0 0.8744683861732483
vn 0.4850824773311615 0 0.8744683861732483
vn 0.4850824773311615 0 0.8744683861732483
vn 0.4850824773311615 0 0.8744683861732483
vn 0.9499160051345825 0 0.3125052750110626
vn 0.9499160051345825 0 0.3125052750110626
vn 0.9499160051345825 0 0.3125052750110626
vn 0.9499160051345825 0 0.3125052750110626
vn 0.8794995546340942 0 -0.4758997559547424
vn 0.8794995546340942 0 -0.4758997559547424
vn 0.8794995546340942 0 -0.4758997559547424
vn 0.8794995546340942 0 -0.4758997559547424
vn -0.4961281716823578 0 -0.8682492971420288
vn -0.4961281716823578 0 -0.8682492971420288
vn -0.4961281716823578 0 -0.8682492971420288
vn -0.4961281716823578 0 -0.8682492971420288
vn 0.8566358089447022 0 -0.5159215927124023
vn 0.8566358089447022 0 -0.5159215927124023
vn 0.8566358089447022 0 -0.5159215927124023
vn 0.8566358089447022 0 -0.5159215927124023
vn 0.4573051035404205 0 0.8893098831176758
vn 0.4573051035404205 0 0.8893098831176758
vn 0.4573051035404205 0 0.8893098831176758
vn 0.4573051035404205 0 0.8893098831176758
vn 0.8810708522796631 0 -0.4729843437671661
vn 0.8810708522796631 0 -0.4729843437671661
vn 0.8810708522796631 0 -0.4729843437671661
vn 0.8810708522796631 0 -0.4729843437671661
vn 0.2577062249183655 0 -0.9662232995033264
vn 0.2577062249183655 0 -0.9662232995033264
vn 0.2577062249183655 0 -0.9662232995033264
vn 0.2577062249183655 0 -0.9662232995033264
vn -0.4294055700302124 0 -0.9031117558479309
vn -0.4294055700302124 0 -0.9031117558479309
vn -0.4294055700302124 0 -0.9031117558479309
vn -0.4294055700302124 0 -0.9031117558479309
vn 0.3541024923324585 0 -0.9352065920829773
vn 0.3541024923324585 0 -0.9352065920829773
vn 0.3541024923324585 0 -0.9352065920829773
vn 0.3541024923324585 0 -0.9352065920829773
vn -0.4839098751544952 0 -0.875117838382721
vn -0.4839098751544952 0 -0.875117838382721
vn -0.4839098751544952 0 -0.875117838382721
vn -0.4839098751544952 0 -0.875117838382721
vn -0.944222629070282 0 -0.32930788397789
vn -0.944222629070282 0 -0.32930788397789
vn -0.944222629070282 0 -0.32930788397789
vn -0.944222629070282 0 -0.32930788397789
vn -0.8796703219413757 0 0.4755839705467224
vn -0.8796703219413757 0 0.4755839705467224
vn -0.8796703219413757 0 0.4755839705467224
vn -0.8796703219413757 0 0.4755839705467224
vn -0.2366016358137131 0 0.9716067314147949
vn -0.2366016358137131 0 0.9716067314147949
vn -0.2366016358137131 0 0.9716067314147949
vn -0.2366016358137131 0 0.9716067314147949
vn 0.4814772605895996 0 0.8764585852622986
vn 0.4814772605895996 0 0.8764585852622986
vn 0.4814772605895996 0 0.8764585852622986
vn 0.4814772605895996 0 0.8764585852622986
vn 0 1 0
vn 0 1 0
vn 0 1 0
vn 0 1 0
vn 0 1 0
vn 0 1 0
vn 0 1 0
vn 0 1 0
vn 0 1 0
vn 0 1 0
vn 0 1 0
vn 0 1 0
vn 0 1 0
vn 0 1 0
vn 0 1 0
vn 0 1 0
vn 0 1 0
vn 0 1 0
vn 0 1 0
vn 0 1 0
vn 0 1 0
vn 0 1 0
vn 0 1 0
vn 0 1 0
vn 0 1 0
vn 0 1 0
vn 0 1 0
vn 0 1 0
vn 0 1 0
vn 0 1 0
vn 0 1 0
vn 0 1 0
vn 0.348711222410202 0 -0.9372302293777466
vn 0.348711222410202 0 -0.9372302293777466
vn 0.348711222410202 0 -0.9372302293777466
vn 0.348711222410202 0 -0.9372302293777466
vn -0.4850824773311615 0 -0.8744683861732483
vn -0.4850824773311615 0 -0.8744683861732483
vn -0.4850824773311615 0 -0.8744683861732483
vn -0.4850824773311615 0 -0.8744683861732483
vn -0.9499160051345825 0 -0.3125052750110626
vn -0.9499160051345825 0 -0.3125052750110626
vn -0.9499160051345825 0 -0.3125052750110626
vn -0.9499160051345825 0 -0.3125052750110626
vn -0.8794995546340942 0 0.4758997559547424
vn -0.8794995546340942 0 0.4758997559547424
vn -0.8794995546340942 0 0.4758997559547424
vn -0.8794995546340942 0 0.4758997559547424
vn 0.4961281716823578 0 0.8682492971420288
vn 0.4961281716823578 0 0.8682492971420288
vn 0.4961281716823578 0 0.8682492971420288
vn 0.4961281716823578 0 0.8682492971420288
vn -0.8566358089447022 0 0.5159215927124023
vn -0.8566358089447022 0 0.5159215927124023
vn -0.8566358089447022 0 0.5159215927124023
vn -0.8566358089447022 0 0.5159215927124023
vn -0.4573051035404205 0 -0.8893098831176758
vn -0.4573051035404205 0 -0.8893098831176758
vn -0.4573051035404205 0 -0.8893098831176758
vn -0.4573051035404205 0 -0.8893098831176758
vn -0.8810708522796631 0 0.4729843437671661
vn -0.8810708522796631 0 0.4729843437671661
vn -0.8810708522796631 0 0.4729843437671661
vn -0.8810708522796631 0 0.4729843437671661
vn -0.2577062249183655 0 0.9662232995033264
vn -0.2577062249183655 0 0.9662232995033264
vn -0.2577062249183655 0 0.9662232995033264
vn -0.2577062249183655 0 0.9662232995033264
vn 0.4294055700302124 0 0.9031117558479309
vn 0.4294055700302124 0 0.9031117558479309
vn 0.4294055700302124 0 0.9031117558479309
vn 0.4294055700302124 0 0.9031117558479309
vn -0.3541024923324585 0 0.9352065920829773
vn -0.3541024923324585 0 0.9352065920829773
vn -0.3541024923324585 0 0.9352065920829773
vn -0.3541024923324585 0 0.9352065920829773
vn 0.4839098751544952 0 0.875117838382721
vn 0.4839098751544952 0 0.875117838382721
vn 0.4839098751544952 0 0.875117838382721
vn 0.4839098751544952 0 0.875117838382721
vn 0.944222629070282 0 0.32930788397789
vn 0.944222629070282 0 0.32930788397789
vn 0.944222629070282 0 0.32930788397789
vn 0.944222629070282 0 0.32930788397789
vn 0.8796703219413757 0 -0.4755839705467224
vn 0.8796703219413757 0 -0.4755839705467224
vn 0.8796703219413757 0 -0.4755839705467224
vn 0.8796703219413757 0 -0.4755839705467224
vn 0.2366016358137131 0 -0.9716067314147949
vn 0.2366016358137131 0 -0.9716067314147949
vn 0.2366016358137131 0 -0.9716067314147949
vn 0.2366016358137131 0 -0.9716067314147949
vn -0.4814772605895996 0 -0.8764585852622986
vn -0.4814772605895996 0 -0.8764585852622986
vn -0.4814772605895996 0 -0.8764585852622986
vn -0.4814772605895996 0 -0.8764585852622986
vn 0 1 0
vn 0 1 0
vn 0 1 0
vn 0 1 0
vn 0 1 0
vn 0 1 0
vn 0 1 0
vn 0 1 0
vn 0 1 0
vn 0 1 0
vn 0 1 0
vn 0 1 0
vn 0 1 0
vn 0 1 0
vn 0 1 0
vn 0 1 0
vn 0 -1 0
vn 0 -1 0
vn 0 -1 0
vn 0 -1 0
vn 0 -1 0
vn 0 -1 0
vn 0 -1 0
vn 0 -1 0
vn 0 -1 0
vn 0 -1 0
vn 0 -1 0
vn 0 -1 0
vn 0 -1 0
vn 0 -1 0
vn 0 -1 0
vn 0 -1 0
f 1//1 2//2 3//3 4//4
f 5//5 6//6 7//7 8//8
f 9//9 10//10 11//11 12//12
f 13//13 14//14 15//15 16//16
f 17//17 18//18 19//19 20//20
f 21//21 22//22 23//23 24//24
f 25//25 26//26 27//27 28//28
f 29//29 30//30 31//31 32//32
f 33//33 34//34 35//35 36//36
f 37//37 38//38 39//39 40//40
f 41//41 42//42 43//43 44//44
f 45//45 46//46 47//47 48//48
f 49//49 50//50 51//51 52//52
f 53//53 54//54 55//55 56//56
f 57//57 58//58 59//59 60//60
f 61//61 62//62 63//63 64//64
f 65//65 66//66 67//67 68//68
f 66//66 69//69 70//70 67//67
f 69//69 71//71 72//72 70//70
f 71//71 73//73 74//74 72//72
f 73//73 75//75 76//76 74//74
f 75//75 77//77 78//78 76//76
f 77//77 79//79 80//80 78//78
f 79//79 81//81 82//82 80//80
f 81//81 83//83 84//84 82//82
f 83//83 85//85 86//86 84//84
f 85//85 87//87 88//88 86//86
f 87//87 89//89 90//90 88//88
f 89//89 91//91 92//92 90//90
f 91//91 93//93 94//94 92//92
f 93//93 95//95 96//96 94//94
f 95//95 65//65 68//68 96//96
f 97//97 98//98 99//99 100//100
f 101//101 102//102 103//103 104//104
f 105//105 106//106 107//107 108//108
f 109//109 110//110 111//111 112//112
f 113//113 114//114 115//115 116//116
f 117//117 118//118 119//119 120//120
f 121//121 122//122 123//123 124//124
f 125//125 126//126 127//127 128//128
f 129//129 130//130 131//131 132//132
f 133//133 134//134 135//135 136//136
f 137//137 138//138 139//139 140//140
f 141//141 142//142 143//143 144//144
f 145//145 146//146 147//147 148//148
f 149//149 150//150 151//151 152//152
f 153//153 154//154 155//155 156//156
f 157//157 158//158 159//159 160//160
f 161//161 162//162 163//163 164//164
f 165//165 166//166 167//167 168//168
f 169//169 164//164 163//163 168//168
f 168//168 163//163 165//165
f 168//168 167//167 170//170 171//171
f 172//172 168//168 171//171 173//173
f 172//172 173//173 174//174 175//175
f 176//176 175//175 174//174
f 177//177 178//178 179//179 180//180
f 181//181 182//182 183//183 184//184
f 185//185 182//182 179//179 178//178
f 182//182 181//181 179//179
f 182//182 186//186 187//187 183//183
f 188//188 189//189 186//186 182//182
f 188//188 190//190 191//191 189//189
f 192//192 191//191 190//190
