# Rhino

g object_1
v -2874.125 36 28146.25
v -2874.125 36 28146.25
v -2874.125 36 28146.25
v -2874.125 0 28146.25
v -2874.125 0 28146.25
v -2874.125 0 28146.25
v -2908.875 36 28155.75
v -2908.875 36 28155.75
v -2908.875 36 28155.75
v -2908.875 0 28155.75
v -2908.875 0 28155.75
v -2908.875 0 28155.75
v -2871.125 36 28157.75
v -2871.125 36 28157.75
v -2871.125 36 28157.75
v -2871.125 0 28157.75
v -2871.125 0 28157.75
v -2871.125 0 28157.75
v -2865.625 36 28156.25
v -2865.625 36 28156.25
v -2865.625 36 28156.25
v -2865.625 0 28156.25
v -2865.625 0 28156.25
v -2865.625 0 28156.25
v -2859.875 36 28179.75
v -2859.875 36 28179.75
v -2859.875 36 28179.75
v -2859.875 0 28179.75
v -2859.875 0 28179.75
v -2859.875 0 28179.75
v -2901 36 28190
v -2901 36 28190
v -2901 36 28190
v -2901 0 28190
v -2901 0 28190
v -2901 0 28190
v -2904.625 36 28188.75
v -2904.625 36 28188.75
v -2904.625 36 28188.75
v -2904.625 0 28188.75
v -2904.625 0 28188.75
v -2904.625 0 28188.75
v -2906.25 36 28183
v -2906.25 36 28183
v -2906.25 36 28183
v -2906.25 0 28183
v -2906.25 0 28183
v -2906.25 0 28183
v -2908.875 36 28183.75
v -2908.875 36 28183.75
v -2908.875 36 28183.75
v -2908.875 0 28183.75
v -2908.875 0 28183.75
v -2908.875 0 28183.75
v -2912.75 36 28167.75
v -2912.75 36 28167.75
v -2912.75 36 28167.75
v -2912.75 0 28167.75
v -2912.75 0 28167.75
v -2912.75 0 28167.75
v -2910.125 36 28167
v -2910.125 36 28167
v -2910.125 36 28167
v -2910.125 0 28167
v -2910.125 0 28167
v -2910.125 0 28167
v -2911.4375 36 28161.25
v -2911.4375 36 28161.25
v -2911.4375 36 28161.25
v -2911.4375 0 28161.25
v -2911.4375 0 28161.25
v -2911.4375 0 28161.25
vn -0.2637012004852295 0 -0.9646044373512268
vn 0.9676215052604675 0 -0.2524056136608124
vn 0 1 0
vn -0.2637012004852295 0 -0.9646044373512268
vn 0.9676215052604675 0 -0.2524056136608124
vn 0 -1 0
vn -0.2637012004852295 0 -0.9646044373512268
vn -0.906446099281311 0 -0.4223214983940125
vn 0 1 0
vn -0.2637012004852295 0 -0.9646044373512268
vn -0.906446099281311 0 -0.4223214983940125
vn 0 -1 0
vn 0.9676215052604675 0 -0.2524056136608124
vn -0.2630920112133026 0 -0.9647707343101502
vn 0 1 0
vn 0.9676215052604675 0 -0.2524056136608124
vn -0.2630920112133026 0 -0.9647707343101502
vn 0 -1 0
vn -0.2630920112133026 0 -0.9647707343101502
vn 0.9713364243507385 0 -0.2377089112997055
vn 0 1 0
vn -0.2630920112133026 0 -0.9647707343101502
vn 0.9713364243507385 0 -0.2377089112997055
vn 0 -1 0
vn 0.9713364243507385 0 -0.2377089112997055
vn 0.2418061196804047 0 0.9703245759010315
vn 0 1 0
vn 0.9713364243507385 0 -0.2377089112997055
vn 0.2418061196804047 0 0.9703245759010315
vn 0 -1 0
vn 0.2418061196804047 0 0.9703245759010315
vn -0.3259906768798828 0 0.945372998714447
vn 0 1 0
vn 0.2418061196804047 0 0.9703245759010315
vn -0.3259906768798828 0 0.945372998714447
vn 0 -1 0
vn -0.3259906768798828 0 0.945372998714447
vn -0.9622974395751953 0 0.2719992995262146
vn 0 1 0
vn -0.3259906768798828 0 0.945372998714447
vn -0.9622974395751953 0 0.2719992995262146
vn 0 -1 0
vn -0.9622974395751953 0 0.2719992995262146
vn 0.2747079133987427 0 0.9615277051925659
vn 0 1 0
vn -0.9622974395751953 0 0.2719992995262146
vn 0.2747079133987427 0 0.9615277051925659
vn 0 -1 0
vn 0.2747079133987427 0 0.9615277051925659
vn -0.9718986749649048 0 0.2353996783494949
vn 0 1 0
vn 0.2747079133987427 0 0.9615277051925659
vn -0.9718986749649048 0 0.2353996783494949
vn 0 -1 0
vn -0.9718986749649048 0 0.2353996783494949
vn -0.2747079133987427 0 -0.9615277051925659
vn 0 1 0
vn -0.9718986749649048 0 0.2353996783494949
vn -0.2747079133987427 0 -0.9615277051925659
vn 0 -1 0
vn -0.2747079133987427 0 -0.9615277051925659
vn -0.9749310612678528 0 0.2225070893764496
vn 0 1 0
vn -0.2747079133987427 0 -0.9615277051925659
vn -0.9749310612678528 0 0.2225070893764496
vn 0 -1 0
vn -0.9749310612678528 0 0.2225070893764496
vn -0.906446099281311 0 -0.4223214983940125
vn 0 1 0
vn -0.9749310612678528 0 0.2225070893764496
vn -0.906446099281311 0 -0.4223214983940125
vn 0 -1 0
f 1//1 4//4 7//7
f 4//4 10//10 7//7
f 13//13 16//16 2//2
f 16//16 5//5 2//2
f 19//19 22//22 14//14
f 22//22 17//17 14//14
f 25//25 28//28 20//20
f 28//28 23//23 20//20
f 31//31 34//34 26//26
f 34//34 29//29 26//26
f 37//37 40//40 32//32
f 40//40 35//35 32//32
f 43//43 46//46 38//38
f 46//46 41//41 38//38
f 49//49 52//52 44//44
f 52//52 47//47 44//44
f 55//55 58//58 50//50
f 58//58 53//53 50//50
f 61//61 64//64 56//56
f 64//64 59//59 56//56
f 67//67 70//70 62//62
f 70//70 65//65 62//62
f 8//8 11//11 68//68
f 11//11 71//71 68//68
f 72//72 12//12 66//66
f 6//6 18//18 12//12
f 24//24 30//30 18//18
f 18//18 30//30 48//48
f 18//18 48//48 66//66
f 18//18 66//66 12//12
f 42//42 48//48 36//36
f 54//54 60//60 48//48
f 60//60 66//66 48//48
f 48//48 30//30 36//36
f 3//3 9//9 15//15
f 69//69 63//63 9//9
f 57//57 45//45 63//63
f 57//57 51//51 45//45
f 39//39 33//33 45//45
f 33//33 27//27 45//45
f 21//21 15//15 27//27
f 9//9 63//63 15//15
f 63//63 45//45 15//15
f 27//27 15//15 45//45
