# Rhino

g object_1
v -11553.0517578125 0 25810.01953125
v -11492.0380859375 0 25720.265625
v -11631.421875 0 25580.349609375
v -11656.369140625 0 25610.71875
v -11655.0126953125 0 25624.548828125
v -11679.9609375 0 25654.91796875
v -11692.43359375 0 25670.103515625
v -11678.6044921875 0 25668.748046875
v -11677.2490234375 0 25682.578125
v -11713.3134765625 0 25741.962890625
v -11699.4833984375 0 25740.60546875
v -11623.5546875 0 25802.970703125
v -11612.4384765625 0 25773.95703125
v -11551.4248046875 0 25684.201171875
v -11566.611328125 0 25671.728515625
v -11543.0205078125 0 25627.529296875
v -11558.205078125 0 25615.056640625
v -11617.591796875 0 25578.9921875
v -11553.0517578125 30 25810.01953125
v -11492.0380859375 30 25720.265625
v -11631.421875 30 25580.349609375
v -11656.369140625 30 25610.71875
v -11655.0126953125 30 25624.548828125
v -11679.9609375 30 25654.91796875
v -11692.43359375 30 25670.103515625
v -11678.6044921875 30 25668.748046875
v -11677.2490234375 30 25682.578125
v -11713.3134765625 30 25741.962890625
v -11699.4833984375 30 25740.60546875
v -11623.5546875 30 25802.970703125
v -11612.4384765625 30 25773.95703125
v -11551.4248046875 30 25684.201171875
v -11566.611328125 30 25671.728515625
v -11543.0205078125 30 25627.529296875
v -11558.205078125 30 25615.056640625
v -11617.591796875 30 25578.9921875
v -11631.421875 0 25580.349609375
v -11631.421875 30 25580.349609375
v -11656.369140625 0 25610.71875
v -11656.369140625 30 25610.71875
v -11656.369140625 0 25610.71875
v -11656.369140625 30 25610.71875
v -11655.0126953125 0 25624.548828125
v -11655.0126953125 30 25624.548828125
v -11655.0126953125 0 25624.548828125
v -11655.0126953125 30 25624.548828125
v -11679.9609375 0 25654.91796875
v -11679.9609375 30 25654.91796875
v -11692.43359375 0 25670.103515625
v -11692.43359375 30 25670.103515625
v -11692.43359375 0 25670.103515625
v -11692.43359375 30 25670.103515625
v -11678.6044921875 0 25668.748046875
v -11678.6044921875 30 25668.748046875
v -11678.6044921875 0 25668.748046875
v -11678.6044921875 30 25668.748046875
v -11677.2490234375 0 25682.578125
v -11677.2490234375 30 25682.578125
v -11677.2490234375 0 25682.578125
v -11677.2490234375 30 25682.578125
v -11713.3134765625 0 25741.962890625
v -11713.3134765625 30 25741.962890625
v -11713.3134765625 0 25741.962890625
v -11713.3134765625 30 25741.962890625
v -11699.4833984375 0 25740.60546875
v -11699.4833984375 30 25740.60546875
v -11699.4833984375 0 25740.60546875
v -11699.4833984375 30 25740.60546875
v -11623.5546875 0 25802.970703125
v -11623.5546875 30 25802.970703125
v -11623.5546875 0 25802.970703125
v -11623.5546875 30 25802.970703125
v -11612.4384765625 0 25773.95703125
v -11612.4384765625 30 25773.95703125
v -11612.4384765625 0 25773.95703125
v -11612.4384765625 30 25773.95703125
v -11553.0517578125 0 25810.01953125
v -11553.0517578125 30 25810.01953125
v -11553.0517578125 0 25810.01953125
v -11553.0517578125 30 25810.01953125
v -11492.0380859375 0 25720.265625
v -11492.0380859375 30 25720.265625
v -11492.0380859375 0 25720.265625
v -11492.0380859375 30 25720.265625
v -11551.4248046875 0 25684.201171875
v -11551.4248046875 30 25684.201171875
v -11551.4248046875 0 25684.201171875
v -11551.4248046875 30 25684.201171875
v -11566.611328125 0 25671.728515625
v -11566.611328125 30 25671.728515625
v -11566.611328125 0 25671.728515625
v -11566.611328125 30 25671.728515625
v -11543.0205078125 0 25627.529296875
v -11543.0205078125 30 25627.529296875
v -11543.0205078125 0 25627.529296875
v -11543.0205078125 30 25627.529296875
v -11558.205078125 0 25615.056640625
v -11558.205078125 30 25615.056640625
v -11558.205078125 0 25615.056640625
v -11558.205078125 30 25615.056640625
v -11617.591796875 0 25578.9921875
v -11617.591796875 30 25578.9921875
v -11617.591796875 0 25578.9921875
v -11617.591796875 30 25578.9921875
v -11631.421875 0 25580.349609375
v -11631.421875 30 25580.349609375
vt 0.6049957275390625 0.004864295944571495
vt 0.8714996576309204 0.004864295944571495
vt 0.9632251262664795 0.4825319051742554
vt 0.8671081066131592 0.491293877363205
vt 0.8408961296081543 0.4693829119205475
vt 0.7447794675827026 0.4781489074230194
vt 0.6967207789421082 0.482527881860733
vt 0.7185652852058411 0.4562360942363739
vt 0.6923533082008362 0.4343251287937164
vt 0.5219659805297852 0.4255591332912445
vt 0.5438122749328613 0.3992651402950287
vt 0.5219798088073731 0.1582407653331757
vt 0.5962483286857605 0.1757709383964539
vt 0.8627544641494751 0.1757727712392807
vt 0.8671201467514038 0.2239777147769928
vt 0.989449143409729 0.2371267080307007
vt 0.993816614151001 0.2853294610977173
vt 0.9850714206695557 0.4562379419803619
vt 0.491293877363205 0.08774825185537338
vt 0.491293877363205 0.3542522192001343
vt 0.01362626720219851 0.445977658033371
vt 0.004864310380071402 0.3498606681823731
vt 0.02677528001368046 0.3236486613750458
vt 0.01800927147269249 0.2275320142507553
vt 0.01363028958439827 0.179473340511322
vt 0.0399220772087574 0.2013178318738937
vt 0.06183304637670517 0.1751058250665665
vt 0.07059905678033829 0.004718507174402475
vt 0.09689302742481232 0.0265648178756237
vt 0.3379174172878265 0.004732342436909676
vt 0.3203872442245483 0.07900084555149078
vt 0.3203854262828827 0.3455069959163666
vt 0.2721804678440094 0.3498726487159729
vt 0.2590314745903015 0.4722016751766205
vt 0.2108287215232849 0.4765691757202148
vt 0.03992024436593056 0.4678239822387695
vt 0.3679976165294647 0.4827525317668915
vt 0.2955699861049652 0.4827525317668915
vt 0.3679976165294647 0.5795593857765198
vt 0.2955699861049652 0.5795593857765198
vt 0.0738924965262413 0.4827525317668915
vt 0 0.4827525317668915
vt 0.0738924965262413 0.5169774889945984
vt 0 0.5169774889945984
vt 0.0724276527762413 0.6536945700645447
vt 0 0.6536945700645447
vt 0.0724276527762413 0.7505014538764954
vt 0 0.7505014538764954
vt 0.0724276527762413 0.7989048957824707
vt 0 0.7989048957824707
vt 0.0738924965262413 0.5682217478752136
vt 0 0.5682217478752136
vt 0.0738924965262413 0.6024467349052429
vt 0 0.6024467349052429
vt 0.0738924965262413 0.5254871845245361
vt 0 0.5254871845245361
vt 0.0738924965262413 0.5597121119499207
vt 0 0.5597121119499207
vt 0.1463201493024826 0.6536945700645447
vt 0.0738924965262413 0.6536945700645447
vt 0.1463201493024826 0.8248251080513001
vt 0.0738924965262413 0.8248251080513001
vt 0.0738924965262413 0.6109563708305359
vt 0 0.6109563708305359
vt 0.0738924965262413 0.6451842188835144
vt 0 0.6451842188835144
vt 0.4418901205062866 0.6061564087867737
vt 0.3694624602794647 0.6061564087867737
vt 0.4418901205062866 0.8467087149620056
vt 0.3694624602794647 0.8467087149620056
vt 0.2581388652324677 0.5667252540588379
vt 0.184246376156807 0.5667252540588379
vt 0.2581388652324677 0.6432546377182007
vt 0.184246376156807 0.6432546377182007
vt 0.2202126383781433 0.6536945700645447
vt 0.1477849930524826 0.6536945700645447
vt 0.2202126383781433 0.8248263001441956
vt 0.1477849930524826 0.8248263001441956
vt 0.5157825946807861 0.4827525317668915
vt 0.4433549642562866 0.4827525317668915
vt 0.5157825946807861 0.7500675916671753
vt 0.4433549642562866 0.7500675916671753
vt 0.3679976165294647 0.6061564087867737
vt 0.2955699861049652 0.6061564087867737
vt 0.3679976165294647 0.7772898077964783
vt 0.2955699861049652 0.7772898077964783
vt 0.1113236024975777 0.5667252540588379
vt 0.1113236024975777 0.6406177282333374
vt 0.1597270369529724 0.5667252540588379
vt 0.1597270369529724 0.6406177282333374
vt 0.4418901205062866 0.4827525317668915
vt 0.3694624602794647 0.4827525317668915
vt 0.4418901205062866 0.6046915650367737
vt 0.3694624602794647 0.6046915650367737
vt 0.1876446753740311 0.4827525317668915
vt 0.1876446753740311 0.5566450357437134
vt 0.2360461056232452 0.4827525317668915
vt 0.2360461056232452 0.5566450357437134
vt 0.2941051423549652 0.6536945700645447
vt 0.2216774821281433 0.6536945700645447
vt 0.2941051423549652 0.8248279690742493
vt 0.2216774821281433 0.8248279690742493
vt 0.1113236024975777 0.4827525317668915
vt 0.1113236024975777 0.5566450357437134
vt 0.1455514281988144 0.4827525317668915
vt 0.1455514281988144 0.5566450357437134
vn 0 -1 0
vn 0 -1 0
vn 0 -1 0
vn 0 -1 0
vn 0 -1 0
vn 0 -1 0
vn 0 -1 0
vn 0 -1 0
vn 0 -1 0
vn 0 -1 0
vn 0 -1 0
vn 0 -1 0
vn 0 -1 0
vn 0 -1 0
vn 0 -1 0
vn 0 -1 0
vn 0 -1 0
vn 0 -1 0
vn 0 1 0
vn 0 1 0
vn 0 1 0
vn 0 1 0
vn 0 1 0
vn 0 1 0
vn 0 1 0
vn 0 1 0
vn 0 1 0
vn 0 1 0
vn 0 1 0
vn 0 1 0
vn 0 1 0
vn 0 1 0
vn 0 1 0
vn 0 1 0
vn 0 1 0
vn 0 1 0
vn -0.7727341651916504 0 -0.63472980260849
vn -0.7727341651916504 0 -0.63472980260849
vn -0.7727341651916504 0 -0.63472980260849
vn -0.7727341651916504 0 -0.63472980260849
vn -0.9952273368835449 0 0.0975838378071785
vn -0.9952273368835449 0 0.0975838378071785
vn -0.9952273368835449 0 0.0975838378071785
vn -0.9952273368835449 0 0.0975838378071785
vn -0.7727077007293701 0 -0.6347619891166687
vn -0.7727077007293701 0 -0.6347619891166687
vn -0.7727606296539307 0 -0.6346976161003113
vn -0.7727606296539307 0 -0.6346976161003113
vn -0.7727606296539307 0 -0.6346976161003113
vn -0.7727606296539307 0 -0.6346976161003113
vn 0.0975838378071785 0 0.9952273368835449
vn 0.0975838378071785 0 0.9952273368835449
vn 0.0975838378071785 0 0.9952273368835449
vn 0.0975838378071785 0 0.9952273368835449
vn -0.9952273368835449 0 0.0975838378071785
vn -0.9952273368835449 0 0.0975838378071785
vn -0.9952273368835449 0 0.0975838378071785
vn -0.9952273368835449 0 0.0975838378071785
vn -0.8547235131263733 0 -0.519083559513092
vn -0.8547235131263733 0 -0.519083559513092
vn -0.8547235131263733 0 -0.519083559513092
vn -0.8547235131263733 0 -0.519083559513092
vn 0.0975838378071785 0 0.9952273368835449
vn 0.0975838378071785 0 0.9952273368835449
vn 0.0975838378071785 0 0.9952273368835449
vn 0.0975838378071785 0 0.9952273368835449
vn -0.6347104907035828 0 0.7727500200271606
vn -0.6347104907035828 0 0.7727500200271606
vn -0.6347104907035828 0 0.7727500200271606
vn -0.6347104907035828 0 0.7727500200271606
vn 0.9337992072105408 0 0.3577975332736969
vn 0.9337992072105408 0 0.3577975332736969
vn 0.9337992072105408 0 0.3577975332736969
vn 0.9337992072105408 0 0.3577975332736969
vn -0.5190436840057373 0 0.8547477126121521
vn -0.5190436840057373 0 0.8547477126121521
vn -0.5190436840057373 0 0.8547477126121521
vn -0.5190436840057373 0 0.8547477126121521
vn 0.8270118236541748 0 0.5621845126152039
vn 0.8270118236541748 0 0.5621845126152039
vn 0.8270118236541748 0 0.5621845126152039
vn 0.8270118236541748 0 0.5621845126152039
vn 0.5190550684928894 0 -0.8547407984733582
vn 0.5190550684928894 0 -0.8547407984733582
vn 0.5190550684928894 0 -0.8547407984733582
vn 0.5190550684928894 0 -0.8547407984733582
vn 0.6346976161003113 0 -0.7727606296539307
vn 0.6346976161003113 0 -0.7727606296539307
vn 0.6346976161003113 0 -0.7727606296539307
vn 0.6346976161003113 0 -0.7727606296539307
vn 0.8822059035301209 0 0.4708637893199921
vn 0.8822059035301209 0 0.4708637893199921
vn 0.8822059035301209 0 0.4708637893199921
vn 0.8822059035301209 0 0.4708637893199921
vn 0.63472980260849 0 -0.7727341651916504
vn 0.63472980260849 0 -0.7727341651916504
vn 0.63472980260849 0 -0.7727341651916504
vn 0.63472980260849 0 -0.7727341651916504
vn 0.5190550684928894 0 -0.8547407984733582
vn 0.5190550684928894 0 -0.8547407984733582
vn 0.5190550684928894 0 -0.8547407984733582
vn 0.5190550684928894 0 -0.8547407984733582
vn -0.0975838378071785 0 -0.9952273368835449
vn -0.0975838378071785 0 -0.9952273368835449
vn -0.0975838378071785 0 -0.9952273368835449
vn -0.0975838378071785 0 -0.9952273368835449
f 13/13/13 12/12/12 11/11/11
f 9/9/9 15/15/15 13/13/13
f 9/9/9 13/13/13 11/11/11
f 11/11/11 10/10/10 9/9/9
f 6/6/6 8/8/8 7/7/7
f 9/9/9 8/8/8 5/5/5
f 6/6/6 5/5/5 8/8/8
f 14/14/14 1/1/1 13/13/13
f 9/9/9 5/5/5 15/15/15
f 15/15/15 14/14/14 13/13/13
f 17/17/17 16/16/16 15/15/15
f 3/3/3 5/5/5 4/4/4
f 3/3/3 18/18/18 5/5/5
f 17/17/17 5/5/5 18/18/18
f 17/17/17 15/15/15 5/5/5
f 2/2/2 1/1/1 14/14/14
f 31/31/31 29/29/29 30/30/30
f 27/27/27 31/31/31 33/33/33
f 27/27/27 29/29/29 31/31/31
f 29/29/29 27/27/27 28/28/28
f 24/24/24 25/25/25 26/26/26
f 27/27/27 23/23/23 26/26/26
f 24/24/24 26/26/26 23/23/23
f 32/32/32 31/31/31 19/19/19
f 27/27/27 33/33/33 23/23/23
f 33/33/33 31/31/31 32/32/32
f 35/35/35 33/33/33 34/34/34
f 21/21/21 22/22/22 23/23/23
f 21/21/21 23/23/23 36/36/36
f 35/35/35 36/36/36 23/23/23
f 35/35/35 23/23/23 33/33/33
f 20/20/20 32/32/32 19/19/19
f 38/38/38 37/37/37 39/39/39 40/40/40
f 42/42/42 41/41/41 43/43/43 44/44/44
f 46/46/46 45/45/45 47/47/47 48/48/48
f 49/49/49 50/50/50 48/48/48 47/47/47
f 52/52/52 51/51/51 53/53/53 54/54/54
f 56/56/56 55/55/55 57/57/57 58/58/58
f 60/60/60 59/59/59 61/61/61 62/62/62
f 64/64/64 63/63/63 65/65/65 66/66/66
f 68/68/68 67/67/67 69/69/69 70/70/70
f 72/72/72 71/71/71 73/73/73 74/74/74
f 76/76/76 75/75/75 77/77/77 78/78/78
f 80/80/80 79/79/79 81/81/81 82/82/82
f 84/84/84 83/83/83 85/85/85 86/86/86
f 88/88/88 87/87/87 89/89/89 90/90/90
f 92/92/92 91/91/91 93/93/93 94/94/94
f 96/96/96 95/95/95 97/97/97 98/98/98
f 100/100/100 99/99/99 101/101/101 102/102/102
f 104/104/104 103/103/103 105/105/105 106/106/106
