# Alias OBJ Model File
# Exported from SketchUp, (c) 2000-2012 Trimble Navigation Limited
# File units = inches

mtllib lab_1.mtl

g Mesh1 Group1 Model

usemtl FrontColor
v 455.655 0 -503.821
vt -63.1875 81.1875
vn 0 -1 -0
v 392.468 0 -422.633
vt 0 0
v 392.468 0 -503.821
vt 0 81.1875
f 1/1/1 2/2/1 3/3/1

v 455.655 0 -422.633
vt -63.1875 0
f 2/2/1 1/1/1 4/4/1

usemtl BackColor
vn -0 1 0
f 3/3/2 2/2/2 1/1/2

usemtl FrontColor
vn -1 0 -0
v 392.468 71.75 -503.821
vt -81.1875 71.75
vt -81.1875 0
f 2/2/3 5/5/3 3/6/3

v 392.468 71.75 -422.633
vt 0 71.75
f 5/5/3 2/2/3 6/7/3

usemtl BackColor
vn 1 -0 0
f 6/7/4 2/2/4 5/5/4

usemtl FrontColor
vn 0 0 1
v 424.061 71.75 -422.633
vt 31.5938 71.75
f 6/7/5 2/2/5 7/8/5

usemtl BackColor
vn -0 -0 -1
f 7/8/6 2/2/6 6/7/6

usemtl FrontColor
vt 63.1875 0
f 4/9/5 7/8/5 2/2/5

v 455.655 149.875 -422.633
vt 63.1875 149.875
f 7/8/5 4/9/5 8/10/5

usemtl BackColor
f 2/2/6 7/8/6 4/9/6

f 8/10/6 4/9/6 7/8/6

usemtl FrontColor
vt 81.1875 0
vn 1 0 -0
vt 0 149.875
f 1/11/7 8/12/7 4/2/7

v 455.655 149.875 -503.821
vt 81.1875 149.875
f 8/12/7 1/11/7 9/13/7

usemtl BackColor
vn -1 -0 0
f 4/2/8 8/12/8 1/11/8

f 9/13/8 1/11/8 8/12/8

usemtl FrontColor
vn 0 0 -1
v 424.061 71.75 -503.821
vt -31.5938 71.75
vt -63.1875 149.875
f 1/4/9 10/14/9 9/15/9

f 1/4/9 5/7/9 10/14/9

f 5/7/9 1/4/9 3/2/9

usemtl BackColor
vn -0 -0 1
f 3/2/10 1/4/10 5/7/10

f 10/14/10 5/7/10 1/4/10

usemtl FrontColor
vn 0 1 -0
vt 31.5938 0
vt 31.5938 81.1875
f 5/3/11 7/16/11 10/17/11

f 7/16/11 5/3/11 6/2/11

usemtl BackColor
vn -0 -1 0
f 6/2/12 5/3/12 7/16/12

f 10/17/12 7/16/12 5/3/12

usemtl FrontColor
v 424.061 149.875 -503.821
vt -81.1875 149.875
f 7/7/3 11/18/3 10/5/3

v 424.061 149.875 -422.633
f 11/18/3 7/7/3 12/12/3

usemtl BackColor
f 12/12/4 7/7/4 11/18/4

usemtl FrontColor
vt 31.5938 149.875
f 7/8/5 8/10/5 12/19/5

usemtl BackColor
f 12/19/6 8/10/6 7/8/6

usemtl FrontColor
f 8/9/11 11/17/11 12/16/11

vt 63.1875 81.1875
f 11/17/11 8/9/11 9/20/11

usemtl BackColor
f 12/16/12 11/17/12 8/9/12

f 9/20/12 8/9/12 11/17/12

usemtl FrontColor
vt -31.5938 149.875
f 9/15/9 10/14/9 11/21/9

usemtl BackColor
f 9/15/10 10/14/10 1/4/10

f 11/21/10 10/14/10 9/15/10

f 10/5/4 11/18/4 7/7/4

f 3/6/4 5/5/4 2/2/4

f 4/4/2 1/1/2 2/2/2

