# Rhino

g object_1
v -11471.1875 30 4568.5
v -11339.25 30 4603.75
v -11323.25 30 4528.5
v -11455.375 30 4499.25
v -11471.1875 0 4568.5
v -11339.25 0 4603.75
v -11323.25 0 4528.5
v -11455.375 0 4499.25
v -11339.25 0 4603.75
v -11339.25 30 4603.75
v -11323.25 0 4528.5
v -11323.25 30 4528.5
v -11323.25 0 4528.5
v -11323.25 30 4528.5
v -11455.375 0 4499.25
v -11455.375 30 4499.25
v -11455.375 0 4499.25
v -11455.375 30 4499.25
v -11471.1875 0 4568.5
v -11471.1875 30 4568.5
v -11471.1875 0 4568.5
v -11471.1875 30 4568.5
v -11339.25 0 4603.75
v -11339.25 30 4603.75
vt 0.9950045943260193 0.01840819604694843
vt 0.9950045943260193 0.6485162973403931
vt 0.6419497132301331 0.6302191615104675
vt 0.6688094735145569 0.006420953664928675
vt 0.6334237456321716 0.295205295085907
vt 0.6334237456321716 0.9239040613174439
vt 0.280368834733963 0.905647873878479
vt 0.3072285950183868 0.2832448780536652
vt 0 0.1384191364049912
vt 0 0.2753734290599823
vt 0.354962944984436 0.1384191364049912
vt 0.354962944984436 0.2753734290599823
vt 0.1369542926549912 0.2768382728099823
vt 0 0.2768382728099823
vt 0.1369542926549912 0.9012191891670227
vt 0 0.9012191891670227
vt 0 0
vt 0 0.1369542926549912
vt 0.3277413249015808 0
vt 0.3277413249015808 0.1369542926549912
vt 0.2753734290599823 0.2768382728099823
vt 0.1384191364049912 0.2768382728099823
vt 0.2753734290599823 0.9069464206695557
vt 0.1384191364049912 0.9069464206695557
vn 0 1 0
vn 0 1 0
vn 0 1 0
vn 0 1 0
vn 0 -1 0
vn 0 -1 0
vn 0 -1 0
vn 0 -1 0
vn 0.9781340956687927 0 0.2079753428697586
vn 0.9781340956687927 0 0.2079753428697586
vn 0.9781340956687927 0 0.2079753428697586
vn 0.9781340956687927 0 0.2079753428697586
vn 0.2161479592323303 0 -0.9763606190681458
vn 0.2161479592323303 0 -0.9763606190681458
vn 0.2161479592323303 0 -0.9763606190681458
vn 0.2161479592323303 0 -0.9763606190681458
vn -0.9749076366424561 0 -0.2226097732782364
vn -0.9749076366424561 0 -0.2226097732782364
vn -0.9749076366424561 0 -0.2226097732782364
vn -0.9749076366424561 0 -0.2226097732782364
vn -0.2581183910369873 0 0.966113269329071
vn -0.2581183910369873 0 0.966113269329071
vn -0.2581183910369873 0 0.966113269329071
vn -0.2581183910369873 0 0.966113269329071
f 2/2/2 4/4/4 1/1/1
f 4/4/4 2/2/2 3/3/3
f 6/6/6 5/5/5 8/8/8
f 8/8/8 7/7/7 6/6/6
f 10/10/10 9/9/9 11/11/11 12/12/12
f 14/14/14 13/13/13 15/15/15 16/16/16
f 18/18/18 17/17/17 19/19/19 20/20/20
f 22/22/22 21/21/21 23/23/23 24/24/24
