# Rhino

g object_1
v -11036.4375 65 4672.75
v -11024.75 65 4595.25
v -11162.125 65 4641.75
v -11145.5625 65 4568
v -11145.5625 0 4568
v -11024.75 0 4595.25
v -11162.125 0 4641.75
v -11036.4375 0 4672.75
v -11024.75 65 4595.25
v -11024.75 0 4595.25
v -11145.5625 65 4568
v -11145.5625 0 4568
v -11145.5625 65 4568
v -11145.5625 0 4568
v -11162.125 65 4641.75
v -11162.125 0 4641.75
v -11162.125 65 4641.75
v -11162.125 0 4641.75
v -11036.4375 65 4672.75
v -11036.4375 0 4672.75
v -11036.4375 65 4672.75
v -11036.4375 0 4672.75
v -11024.75 65 4595.25
v -11024.75 0 4595.25
vn 0 1 0
vn 0 1 0
vn 0 1 0
vn 0 1 0
vn 0 -1 0
vn 0 -1 0
vn 0 -1 0
vn 0 -1 0
vn 0.2199999690055847 0 -0.9754998683929443
vn 0.2199999690055847 0 -0.9754998683929443
vn 0.2199999690055847 0 -0.9754998683929443
vn 0.2199999690055847 0 -0.9754998683929443
vn -0.9757022857666016 0 -0.2191005051136017
vn -0.9757022857666016 0 -0.2191005051136017
vn -0.9757022857666016 0 -0.2191005051136017
vn -0.9757022857666016 0 -0.2191005051136017
vn -0.2394991517066956 0 0.9708966016769409
vn -0.2394991517066956 0 0.9708966016769409
vn -0.2394991517066956 0 0.9708966016769409
vn -0.2394991517066956 0 0.9708966016769409
vn 0.9888216257095337 0 0.1491032689809799
vn 0.9888216257095337 0 0.1491032689809799
vn 0.9888216257095337 0 0.1491032689809799
vn 0.9888216257095337 0 0.1491032689809799
f 1//1 2//2 3//3
f 2//2 4//4 3//3
f 5//5 6//6 7//7
f 6//6 8//8 7//7
f 9//9 10//10 11//11
f 10//10 12//12 11//11
f 13//13 14//14 15//15
f 14//14 16//16 15//15
f 17//17 18//18 19//19
f 18//18 20//20 19//19
f 21//21 22//22 23//23
f 22//22 24//24 23//23
