# Rhino

g object_1
v -25078.875 24 7549
v -25082.75 24 7544.25
v -25083.375 24 7546.25
v -25054.75 24 7527
v -25078.875 24 7496.25
v -25099.25 24 7536.25
v -25055.75 24 7560.25
v -25042.125 24 7534
v -25049.5 24 7516
v -25034.625 24 7489.75
v -25036.9375 24 7522.75
v -25022.9375 24 7496
v -25020.625 24 7493.25
v -25021.9375 24 7496.25
v -25033.375 24 7486.25
v -25055.125 24 7479.75
v -25065.875 24 7470
v -25053.4375 24 7475.75
vn 0 1 0
vn 0 1 0
vn 0 1 0
vn 0 1 0
vn 0 1 0
vn 0 1 0
vn 0 1 0
vn 0 1 0
vn 0 1 0
vn 0 1 0
vn 0 1 0
vn 0 1 0
vn 0 1 0
vn 0 1 0
vn 0 1 0
vn 0 1 0
vn 0 1 0
vn 0 1 0
f 1//1 2//2 3//3
f 1//1 4//4 2//2
f 4//4 5//5 2//2
f 5//5 6//6 2//2
f 4//4 7//7 8//8
f 9//9 5//5 4//4
f 10//10 9//9 11//11
f 12//12 10//10 11//11
f 13//13 12//12 14//14
f 15//15 12//12 13//13
f 10//10 12//12 15//15
f 16//16 9//9 10//10
f 17//17 16//16 18//18
f 5//5 16//16 17//17
f 9//9 16//16 5//5
f 4//4 1//1 7//7
g object_2
v -25055.75 0 7560.25
v -25054.75 0 7527
v -25042.125 0 7534
v -25082.75 0 7544.25
v -25078.875 0 7549
v -25083.375 0 7546.25
v -25078.875 0 7496.25
v -25099.25 0 7536.25
v -25055.125 0 7479.75
v -25065.875 0 7470
v -25053.4375 0 7475.75
v -25049.5 0 7516
v -25022.9375 0 7496
v -25034.625 0 7489.75
v -25033.375 0 7486.25
v -25020.625 0 7493.25
v -25021.9375 0 7496.25
v -25036.9375 0 7522.75
vn 0 -1 0
vn 0 -1 0
vn 0 -1 0
vn 0 -1 0
vn 0 -1 0
vn 0 -1 0
vn 0 -1 0
vn 0 -1 0
vn 0 -1 0
vn 0 -1 0
vn 0 -1 0
vn 0 -1 0
vn 0 -1 0
vn 0 -1 0
vn 0 -1 0
vn 0 -1 0
vn 0 -1 0
vn 0 -1 0
f 19//19 20//20 21//21
f 22//22 23//23 24//24
f 25//25 22//22 26//26
f 27//27 25//25 28//28
f 29//29 27//27 28//28
f 27//27 30//30 25//25
f 30//30 20//20 25//25
f 20//20 22//22 25//25
f 31//31 32//32 33//33
f 34//34 31//31 33//33
f 35//35 31//31 34//34
f 36//36 32//32 31//31
f 30//30 32//32 36//36
f 30//30 27//27 32//32
f 23//23 20//20 19//19
f 23//23 22//22 20//20
g object_3
v -25078.875 0 7549
v -25055.75 24 7560.25
v -25078.875 24 7549
v -25055.75 0 7560.25
vn -0.4375072419643402 0 0.8992148637771606
vn -0.4375072419643402 0 0.8992148637771606
vn -0.4375072419643402 0 0.8992148637771606
vn -0.4375072419643402 0 0.8992148637771606
f 37//37 38//38 39//39
f 40//40 38//38 37//37
g object_4
v -25055.75 0 7560.25
v -25042.125 24 7534
v -25055.75 24 7560.25
v -25042.125 0 7534
vn 0.8875652551651001 0 0.4606819748878479
vn 0.8875652551651001 0 0.4606819748878479
vn 0.8875652551651001 0 0.4606819748878479
vn 0.8875652551651001 0 0.4606819748878479
f 41//41 42//42 43//43
f 44//44 42//42 41//41
g object_5
v -25042.125 0 7534
v -25054.75 24 7527
v -25042.125 24 7534
v -25054.75 0 7527
vn 0.4848871231079102 0 -0.87457674741745
vn 0.4848871231079102 0 -0.87457674741745
vn 0.4848871231079102 0 -0.87457674741745
vn 0.4848871231079102 0 -0.87457674741745
f 45//45 46//46 47//47
f 48//48 46//46 45//45
g object_6
v -25054.75 0 7527
v -25049.5 24 7516
v -25054.75 24 7527
v -25049.5 0 7516
vn 0.9024960398674011 0 0.4306981265544891
vn 0.9024960398674011 0 0.4306981265544891
vn 0.9024960398674011 0 0.4306981265544891
vn 0.9024960398674011 0 0.4306981265544891
f 49//49 50//50 51//51
f 52//52 50//50 49//49
g object_7
v -25049.5 0 7516
v -25036.9375 24 7522.75
v -25049.5 24 7516
v -25036.9375 0 7522.75
vn -0.4733005464076996 0 0.880901038646698
vn -0.4733005464076996 0 0.880901038646698
vn -0.4733005464076996 0 0.880901038646698
vn -0.4733005464076996 0 0.880901038646698
f 53//53 54//54 55//55
f 56//56 54//54 53//53
g object_8
v -25036.9375 24 7522.75
v -25022.9375 24 7496
v -25036.9375 0 7522.75
v -25022.9375 0 7496
vn -0.8859939575195313 0 -0.4636968374252319
vn -0.8859939575195313 0 -0.4636968374252319
vn -0.8859939575195313 0 -0.4636968374252319
vn -0.8859939575195313 0 -0.4636968374252319
f 57//57 58//58 59//59
f 59//59 58//58 60//60
g object_9
v -25022.9375 24 7496
v -25021.9375 24 7496.25
v -25022.9375 0 7496
v -25021.9375 0 7496.25
vn 0.2425121068954468 0 -0.9701483845710754
vn 0.2425121068954468 0 -0.9701483845710754
vn 0.2425121068954468 0 -0.9701483845710754
vn 0.2425121068954468 0 -0.9701483845710754
f 61//61 62//62 63//63
f 63//63 62//62 64//64
g object_10
v -25021.9375 0 7496.25
v -25020.625 24 7493.25
v -25021.9375 24 7496.25
v -25020.625 0 7493.25
vn 0.916171133518219 0 0.400787353515625
vn 0.916171133518219 0 0.400787353515625
vn 0.916171133518219 0 0.400787353515625
vn 0.916171133518219 0 0.400787353515625
f 65//65 66//66 67//67
f 68//68 66//66 65//65
g object_11
v -25020.625 0 7493.25
v -25033.375 24 7486.25
v -25020.625 24 7493.25
v -25033.375 0 7486.25
vn 0.4812813997268677 0 -0.8765661716461182
vn 0.4812813997268677 0 -0.8765661716461182
vn 0.4812813997268677 0 -0.8765661716461182
vn 0.4812813997268677 0 -0.8765661716461182
f 69//69 70//70 71//71
f 72//72 70//70 69//69
g object_12
v -25033.375 0 7486.25
v -25034.625 24 7489.75
v -25033.375 24 7486.25
v -25034.625 0 7489.75
vn -0.9417486786842346 0 -0.336317390203476
vn -0.9417486786842346 0 -0.336317390203476
vn -0.9417486786842346 0 -0.336317390203476
vn -0.9417486786842346 0 -0.336317390203476
f 73//73 74//74 75//75
f 76//76 74//74 73//73
g object_13
v -25034.625 0 7489.75
v -25055.125 24 7479.75
v -25034.625 24 7489.75
v -25055.125 0 7479.75
vn 0.4383921027183533 0 -0.898783802986145
vn 0.4383921027183533 0 -0.898783802986145
vn 0.4383921027183533 0 -0.898783802986145
vn 0.4383921027183533 0 -0.898783802986145
f 77//77 78//78 79//79
f 80//80 78//78 77//77
g object_14
v -25055.125 0 7479.75
v -25053.4375 24 7475.75
v -25055.125 24 7479.75
v -25053.4375 0 7475.75
vn 0.921369731426239 0 0.3886872529983521
vn 0.921369731426239 0 0.3886872529983521
vn 0.921369731426239 0 0.3886872529983521
vn 0.921369731426239 0 0.3886872529983521
f 81//81 82//82 83//83
f 84//84 82//82 81//81
g object_15
v -25053.4375 0 7475.75
v -25065.875 24 7470
v -25053.4375 24 7475.75
v -25065.875 0 7470
vn 0.4196034669876099 0 -0.9077075123786926
vn 0.4196034669876099 0 -0.9077075123786926
vn 0.4196034669876099 0 -0.9077075123786926
vn 0.4196034669876099 0 -0.9077075123786926
f 85//85 86//86 87//87
f 88//88 86//86 85//85
g object_16
v -25065.875 0 7470
v -25078.875 24 7496.25
v -25065.875 24 7470
v -25078.875 0 7496.25
vn -0.8961207866668701 0 -0.4438102841377258
vn -0.8961207866668701 0 -0.4438102841377258
vn -0.8961207866668701 0 -0.4438102841377258
vn -0.8961207866668701 0 -0.4438102841377258
f 89//89 90//90 91//91
f 92//92 90//90 89//89
g object_17
v -25078.875 0 7496.25
v -25099.25 24 7536.25
v -25078.875 24 7496.25
v -25099.25 0 7536.25
vn -0.8910623788833618 0 -0.4538808465003967
vn -0.8910623788833618 0 -0.4538808465003967
vn -0.8910623788833618 0 -0.4538808465003967
vn -0.8910623788833618 0 -0.4538808465003967
f 93//93 94//94 95//95
f 96//96 94//94 93//93
g object_18
v -25099.25 0 7536.25
v -25082.75 24 7544.25
v -25099.25 24 7536.25
v -25082.75 0 7544.25
vn -0.43630051612854 0 0.8998010158538818
vn -0.43630051612854 0 0.8998010158538818
vn -0.43630051612854 0 0.8998010158538818
vn -0.43630051612854 0 0.8998010158538818
f 97//97 98//98 99//99
f 100//100 98//98 97//97
g object_19
v -25082.75 0 7544.25
v -25083.375 24 7546.25
v -25082.75 24 7544.25
v -25083.375 0 7546.25
vn -0.9544746279716492 0 -0.2982920706272125
vn -0.9544746279716492 0 -0.2982920706272125
vn -0.9544746279716492 0 -0.2982920706272125
vn -0.9544746279716492 0 -0.2982920706272125
f 101//101 102//102 103//103
f 104//104 102//102 101//101
g object_20
v -25083.375 0 7546.25
v -25078.875 24 7549
v -25083.375 24 7546.25
v -25078.875 0 7549
vn -0.5214055180549622 0 0.8533090353012085
vn -0.5214055180549622 0 0.8533090353012085
vn -0.5214055180549622 0 0.8533090353012085
vn -0.5214055180549622 0 0.8533090353012085
f 105//105 106//106 107//107
f 108//108 106//106 105//105
g object_21
v -25036.9375 24 7522.75
v -25037.5 24 7524.75
v -25036.9375 0 7522.75
v -25037.5 0 7524.75
vn 0.962666392326355 0 0.2706905603408814
vn 0.962666392326355 0 0.2706905603408814
vn 0.962666392326355 0 0.2706905603408814
vn 0.962666392326355 0 0.2706905603408814
f 109//109 110//110 111//111
f 111//111 110//110 112//112
g object_22
v -25037.5 24 7524.75
v -25026.5 24 7542.75
v -25037.5 0 7524.75
v -25026.5 0 7542.75
vn 0.8533090353012085 0 -0.5214055180549622
vn 0.8533090353012085 0 -0.5214055180549622
vn 0.8533090353012085 0 -0.5214055180549622
vn 0.8533090353012085 0 -0.5214055180549622
f 113//113 114//114 115//115
f 115//115 114//114 116//116
g object_23
v -25026.5 24 7542.75
v -25050.5 24 7557.75
v -25026.5 0 7542.75
v -25050.5 0 7557.75
vn 0.5299988985061646 0 0.847998321056366
vn 0.5299988985061646 0 0.847998321056366
vn 0.5299988985061646 0 0.847998321056366
vn 0.5299988985061646 0 0.847998321056366
f 117//117 118//118 119//119
f 119//119 118//118 120//120
g object_24
v -25050.5 24 7557.75
v -25031.75 24 7587.25
v -25050.5 0 7557.75
v -25031.75 0 7587.25
vn 0.843974232673645 0 -0.5363836884498596
vn 0.843974232673645 0 -0.5363836884498596
vn 0.843974232673645 0 -0.5363836884498596
vn 0.843974232673645 0 -0.5363836884498596
f 121//121 122//122 123//123
f 123//123 122//122 124//124
g object_25
v -25031.75 0 7587.25
v -24969 24 7578
v -25031.75 24 7587.25
v -24969 0 7578
vn 0.1458020210266113 0 0.9893137812614441
vn 0.1458020210266113 0 0.9893137812614441
vn 0.1458020210266113 0 0.9893137812614441
vn 0.1458020210266113 0 0.9893137812614441
f 125//125 126//126 127//127
f 128//128 126//126 125//125
g object_26
v -24969 24 7578
v -24980.75 24 7560
v -24969 0 7578
v -24980.75 0 7560
vn -0.8373956680297852 0 0.5465971827507019
vn -0.8373956680297852 0 0.5465971827507019
vn -0.8373956680297852 0 0.5465971827507019
vn -0.8373956680297852 0 0.5465971827507019
f 129//129 130//130 131//131
f 131//131 130//130 132//132
g object_27
v -24980.75 24 7560
v -24978.4375 24 7558.25
v -24980.75 0 7560
v -24978.4375 0 7558.25
vn -0.6034185886383057 0 -0.7974246144294739
vn -0.6034185886383057 0 -0.7974246144294739
vn -0.6034185886383057 0 -0.7974246144294739
vn -0.6034185886383057 0 -0.7974246144294739
f 133//133 134//134 135//135
f 135//135 134//134 136//136
g object_28
v -24978.4375 24 7558.25
v -24986.25 24 7546.25
v -24978.4375 0 7558.25
v -24986.25 0 7546.25
vn -0.8380321264266968 0 0.5456209182739258
vn -0.8380321264266968 0 0.5456209182739258
vn -0.8380321264266968 0 0.5456209182739258
vn -0.8380321264266968 0 0.5456209182739258
f 137//137 138//138 139//139
f 139//139 138//138 140//140
g object_29
v -24986.25 24 7546.25
v -24988.875 24 7547.75
v -24986.25 0 7546.25
v -24988.875 0 7547.75
vn 0.4961281716823578 0 0.8682492971420288
vn 0.4961281716823578 0 0.8682492971420288
vn 0.4961281716823578 0 0.8682492971420288
vn 0.4961281716823578 0 0.8682492971420288
f 141//141 142//142 143//143
f 143//143 142//142 144//144
g object_30
v -24988.875 24 7547.75
v -25001.875 24 7528
v -24988.875 0 7547.75
v -25001.875 0 7528
vn -0.8352974653244019 0 0.549798309803009
vn -0.8352974653244019 0 0.549798309803009
vn -0.8352974653244019 0 0.549798309803009
vn -0.8352974653244019 0 0.549798309803009
f 145//145 146//146 147//147
f 147//147 146//146 148//148
g object_31
v -25001.875 24 7528
v -24998.9375 24 7526.25
v -25001.875 0 7528
v -24998.9375 0 7526.25
vn -0.5118020176887512 0 -0.8591034412384033
vn -0.5118020176887512 0 -0.8591034412384033
vn -0.5118020176887512 0 -0.8591034412384033
vn -0.5118020176887512 0 -0.8591034412384033
f 149//149 150//150 151//151
f 151//151 150//150 152//152
g object_32
v -24998.9375 24 7526.25
v -25007 24 7513.75
v -24998.9375 0 7526.25
v -25007 0 7513.75
vn -0.8403847813606262 0 0.5419902205467224
vn -0.8403847813606262 0 0.5419902205467224
vn -0.8403847813606262 0 0.5419902205467224
vn -0.8403847813606262 0 0.5419902205467224
f 153//153 154//154 155//155
f 155//155 154//154 156//156
g object_33
v -25007 24 7513.75
v -25009.625 24 7515.75
v -25007 0 7513.75
v -25009.625 0 7515.75
vn 0.6060311794281006 0 0.7954409122467041
vn 0.6060311794281006 0 0.7954409122467041
vn 0.6060311794281006 0 0.7954409122467041
vn 0.6060311794281006 0 0.7954409122467041
f 157//157 158//158 159//159
f 159//159 158//158 160//160
g object_34
v -25009.625 24 7515.75
v -25021.9375 24 7496.25
v -25009.625 0 7515.75
v -25021.9375 0 7496.25
vn -0.8455625772476196 0 0.533876359462738
vn -0.8455625772476196 0 0.533876359462738
vn -0.8455625772476196 0 0.533876359462738
vn -0.8455625772476196 0 0.533876359462738
f 161//161 162//162 163//163
f 163//163 162//162 164//164
g object_35
v -25021.9375 24 7496.25
v -25022.9375 24 7496
v -25021.9375 0 7496.25
v -25022.9375 0 7496
vn -0.2425121068954468 0 0.9701483845710754
vn -0.2425121068954468 0 0.9701483845710754
vn -0.2425121068954468 0 0.9701483845710754
vn -0.2425121068954468 0 0.9701483845710754
f 165//165 166//166 167//167
f 167//167 166//166 168//168
g object_36
v -25022.9375 24 7496
v -25036.9375 24 7522.75
v -25022.9375 0 7496
v -25036.9375 0 7522.75
vn 0.8859939575195313 0 0.4636968374252319
vn 0.8859939575195313 0 0.4636968374252319
vn 0.8859939575195313 0 0.4636968374252319
vn 0.8859939575195313 0 0.4636968374252319
f 169//169 170//170 171//171
f 171//171 170//170 172//172
g object_37
v -25031.75 24 7587.25
v -24969 24 7578
v -24966.4375 24 7593.25
v -25036.25 24 7600.75
v -24963.5 24 7615.75
v -25038.25 24 7601
v -25039.875 24 7588.25
v -25032.375 24 7625.75
v -25034.625 24 7626
v -25033.375 24 7638.75
v -24958.375 24 7629
v -24959.625 24 7614.75
v -24963.25 24 7592.75
v -24965.125 24 7577.75
v -25022.9375 24 7496
v -25021.9375 24 7496.25
v -25036.9375 24 7522.75
v -25037.5 24 7524.75
v -25026.5 24 7542.75
v -25050.5 24 7557.75
v -24980.75 24 7560
v -24978.4375 24 7558.25
v -24986.25 24 7546.25
v -24988.875 24 7547.75
v -25001.875 24 7528
v -24998.9375 24 7526.25
v -25007 24 7513.75
v -25009.625 24 7515.75
vn 0 -1 0
vn 0 -1 0
vn 0 -1 0
vn 0 -1 0
vn 0 -1 0
vn 0 -1 0
vn 0 -1 0
vn 0 -1 0
vn 0 -1 0
vn 0 -1 0
vn 0 -1 0
vn 0 -1 0
vn 0 -1 0
vn 0 -1 0
vn 0 -1 0
vn 0 -1 0
vn 0 -1 0
vn 0 -1 0
vn 0 -1 0
vn 0 -1 0
vn 0 -1 0
vn 0 -1 0
vn 0 -1 0
vn 0 -1 0
vn 0 -1 0
vn 0 -1 0
vn 0 -1 0
vn 0 -1 0
f 173//173 174//174 175//175
f 175//175 176//176 173//173
f 175//175 177//177 176//176
f 178//178 179//179 176//176
f 176//176 177//177 180//180
f 181//181 180//180 182//182
f 182//182 180//180 183//183
f 184//184 183//183 177//177
f 175//175 174//174 185//185
f 185//185 174//174 186//186
f 177//177 183//183 180//180
f 179//179 173//173 176//176
f 187//187 188//188 189//189
f 190//190 189//189 191//191
f 192//192 191//191 173//173
f 174//174 173//173 193//193
f 194//194 193//193 195//195
f 195//195 193//193 196//196
f 197//197 196//196 191//191
f 198//198 197//197 199//199
f 199//199 197//197 200//200
f 188//188 200//200 189//189
f 193//193 173//173 196//196
f 197//197 191//191 200//200
f 191//191 189//189 200//200
f 173//173 191//191 196//196
g object_38
v -25038.25 0 7601
v -25036.25 0 7600.75
v -25039.875 0 7588.25
v -24969 0 7578
v -25031.75 0 7587.25
v -24966.4375 0 7593.25
v -24965.125 0 7577.75
v -24963.25 0 7592.75
v -24959.625 0 7614.75
v -24963.5 0 7615.75
v -24958.375 0 7629
v -25032.375 0 7625.75
v -25034.625 0 7626
v -25033.375 0 7638.75
v -25037.5 0 7524.75
v -25026.5 0 7542.75
v -25036.9375 0 7522.75
v -25022.9375 0 7496
v -25021.9375 0 7496.25
v -25009.625 0 7515.75
v -25007 0 7513.75
v -25001.875 0 7528
v -24998.9375 0 7526.25
v -24986.25 0 7546.25
v -24988.875 0 7547.75
v -24980.75 0 7560
v -24978.4375 0 7558.25
v -25050.5 0 7557.75
vn 0 1 0
vn 0 1 0
vn 0 1 0
vn 0 1 0
vn 0 1 0
vn 0 1 0
vn 0 1 0
vn 0 1 0
vn 0 1 0
vn 0 1 0
vn 0 1 0
vn 0 1 0
vn 0 1 0
vn 0 1 0
vn 0 1 0
vn 0 1 0
vn 0 1 0
vn 0 1 0
vn 0 1 0
vn 0 1 0
vn 0 1 0
vn 0 1 0
vn 0 1 0
vn 0 1 0
vn 0 1 0
vn 0 1 0
vn 0 1 0
vn 0 1 0
f 201//201 202//202 203//203
f 204//204 205//205 206//206
f 207//207 204//204 208//208
f 208//208 204//204 206//206
f 205//205 202//202 206//206
f 205//205 203//203 202//202
f 209//209 210//210 211//211
f 210//210 212//212 211//211
f 210//210 202//202 212//212
f 210//210 206//206 202//202
f 213//213 214//214 212//212
f 214//214 211//211 212//212
f 215//215 216//216 217//217
f 218//218 217//217 219//219
f 219//219 217//217 220//220
f 221//221 220//220 222//222
f 221//221 222//222 223//223
f 220//220 216//216 222//222
f 220//220 217//217 216//216
f 224//224 225//225 226//226
f 224//224 226//226 227//227
f 204//204 226//226 205//205
f 228//228 205//205 216//216
f 222//222 216//216 225//225
f 226//226 225//225 205//205
f 216//216 205//205 225//225
g object_39
v -25031.75 24 7587.25
v -25039.875 24 7588.25
v -25031.75 0 7587.25
v -25039.875 0 7588.25
vn 0.1222006604075432 0 0.9925054311752319
vn 0.1222006604075432 0 0.9925054311752319
vn 0.1222006604075432 0 0.9925054311752319
vn 0.1222006604075432 0 0.9925054311752319
f 229//229 230//230 231//231
f 231//231 230//230 232//232
g object_40
v -25039.875 24 7588.25
v -25038.25 24 7601
v -25039.875 0 7588.25
v -25038.25 0 7601
vn 0.9919796586036682 0 -0.1263974010944367
vn 0.9919796586036682 0 -0.1263974010944367
vn 0.9919796586036682 0 -0.1263974010944367
vn 0.9919796586036682 0 -0.1263974010944367
f 233//233 234//234 235//235
f 235//235 234//234 236//236
g object_41
v -25038.25 24 7601
v -25036.25 24 7600.75
v -25038.25 0 7601
v -25036.25 0 7600.75
vn -0.1239978149533272 0 -0.992282509803772
vn -0.1239978149533272 0 -0.992282509803772
vn -0.1239978149533272 0 -0.992282509803772
vn -0.1239978149533272 0 -0.992282509803772
f 237//237 238//238 239//239
f 239//239 238//238 240//240
g object_42
v -25036.25 24 7600.75
v -25032.375 24 7625.75
v -25036.25 0 7600.75
v -25032.375 0 7625.75
vn 0.9881953001022339 0 -0.1531992703676224
vn 0.9881953001022339 0 -0.1531992703676224
vn 0.9881953001022339 0 -0.1531992703676224
vn 0.9881953001022339 0 -0.1531992703676224
f 241//241 242//242 243//243
f 243//243 242//242 244//244
g object_43
v -25032.375 24 7625.75
v -25034.625 24 7626
v -25032.375 0 7625.75
v -25034.625 0 7626
vn 0.1103985980153084 0 0.9938873648643494
vn 0.1103985980153084 0 0.9938873648643494
vn 0.1103985980153084 0 0.9938873648643494
vn 0.1103985980153084 0 0.9938873648643494
f 245//245 246//246 247//247
f 247//247 246//246 248//248
g object_44
v -25034.625 24 7626
v -25033.375 24 7638.75
v -25034.625 0 7626
v -25033.375 0 7638.75
vn 0.9952254891395569 0 -0.09760250151157379
vn 0.9952254891395569 0 -0.09760250151157379
vn 0.9952254891395569 0 -0.09760250151157379
vn 0.9952254891395569 0 -0.09760250151157379
f 249//249 250//250 251//251
f 251//251 250//250 252//252
g object_45
v -25033.375 24 7638.75
v -24958.375 24 7629
v -25033.375 0 7638.75
v -24958.375 0 7629
vn -0.1288945823907852 0 -0.9916583299636841
vn -0.1288945823907852 0 -0.9916583299636841
vn -0.1288945823907852 0 -0.9916583299636841
vn -0.1288945823907852 0 -0.9916583299636841
f 253//253 254//254 255//255
f 255//255 254//254 256//256
g object_46
v -24958.375 24 7629
v -24959.625 24 7614.75
v -24958.375 0 7629
v -24959.625 0 7614.75
vn -0.9961735010147095 0 0.08739767223596573
vn -0.9961735010147095 0 0.08739767223596573
vn -0.9961735010147095 0 0.08739767223596573
vn -0.9961735010147095 0 0.08739767223596573
f 257//257 258//258 259//259
f 259//259 258//258 260//260
g object_47
v -24959.625 24 7614.75
v -24963.5 24 7615.75
v -24959.625 0 7614.75
v -24963.5 0 7615.75
vn 0.2498931437730789 0 0.968273401260376
vn 0.2498931437730789 0 0.968273401260376
vn 0.2498931437730789 0 0.968273401260376
vn 0.2498931437730789 0 0.968273401260376
f 261//261 262//262 263//263
f 263//263 262//262 264//264
g object_48
v -24963.5 24 7615.75
v -24966.4375 24 7593.25
v -24963.5 0 7615.75
v -24966.4375 0 7593.25
vn -0.9915797710418701 0 0.1294973641633987
vn -0.9915797710418701 0 0.1294973641633987
vn -0.9915797710418701 0 0.1294973641633987
vn -0.9915797710418701 0 0.1294973641633987
f 265//265 266//266 267//267
f 267//267 266//266 268//268
g object_49
v -24966.4375 24 7593.25
v -24963.25 24 7592.75
v -24966.4375 0 7593.25
v -24963.25 0 7592.75
vn -0.1550022214651108 0 -0.9879141449928284
vn -0.1550022214651108 0 -0.9879141449928284
vn -0.1550022214651108 0 -0.9879141449928284
vn -0.1550022214651108 0 -0.9879141449928284
f 269//269 270//270 271//271
f 271//271 270//270 272//272
g object_50
v -24963.25 24 7592.75
v -24965.125 24 7577.75
v -24963.25 0 7592.75
v -24965.125 0 7577.75
vn -0.992282509803772 0 0.1239978149533272
vn -0.992282509803772 0 0.1239978149533272
vn -0.992282509803772 0 0.1239978149533272
vn -0.992282509803772 0 0.1239978149533272
f 273//273 274//274 275//275
f 275//275 274//274 276//276
g object_51
v -24965.125 24 7577.75
v -24969 24 7578
v -24965.125 0 7577.75
v -24969 0 7578
vn 0.06440155208110809 0 0.9979240894317627
vn 0.06440155208110809 0 0.9979240894317627
vn 0.06440155208110809 0 0.9979240894317627
vn 0.06440155208110809 0 0.9979240894317627
f 277//277 278//278 279//279
f 279//279 278//278 280//280
g object_52
v -24969 0 7578
v -25031.75 24 7587.25
v -24969 24 7578
v -25031.75 0 7587.25
vn -0.1458020210266113 0 -0.9893137812614441
vn -0.1458020210266113 0 -0.9893137812614441
vn -0.1458020210266113 0 -0.9893137812614441
vn -0.1458020210266113 0 -0.9893137812614441
f 281//281 282//282 283//283
f 284//284 282//282 281//281
