# Rhino

g object_1
v -6009.625 0 9537
v -5980.6875 0 9522.25
v -5980.6875 96 9522.25
v -6009.625 96 9537
v -5980.6875 0 9522.25
v -6000.875 0 9481.75
v -6000.875 96 9481.75
v -5980.6875 96 9522.25
v -6000.875 0 9481.75
v -6030.4375 0 9496.5
v -6030.4375 96 9496.5
v -6000.875 96 9481.75
v -6030.4375 0 9496.5
v -6009.625 0 9537
v -6009.625 96 9537
v -6030.4375 96 9496.5
v -6009.625 96 9537
v -5980.6875 96 9522.25
v -5982 96 9521.75
v -6009.1875 96 9535.75
v -6000.875 96 9481.75
v -6001.3125 96 9483
v -6030.4375 96 9496.5
v -6029.0625 96 9497
v -6009.1875 96 9535.75
v -5982 96 9521.75
v -5982 93 9521.75
v -6009.1875 93 9535.75
v -5982 96 9521.75
v -6001.3125 96 9483
v -6001.3125 93 9483
v -5982 93 9521.75
v -6029.0625 96 9497
v -6009.1875 96 9535.75
v -6009.1875 93 9535.75
v -6029.0625 93 9497
v -6001.3125 93 9483
v -6029.0625 93 9497
v -6009.1875 93 9535.75
v -5982 93 9521.75
v -6000.875 0 9481.75
v -5980.6875 0 9522.25
v -6009.625 0 9537
v -6030.4375 0 9496.5
v -5995.9375 0 9562.75
v -5967 0 9547.75
v -5967 96 9547.75
v -5995.9375 96 9562.75
v -5967 0 9547.75
v -5977.5625 0 9527.5
v -5977.5625 96 9527.5
v -5967 96 9547.75
v -5977.5625 0 9527.5
v -6006.8125 0 9542.75
v -6006.8125 96 9542.75
v -5977.5625 96 9527.5
v -6006.8125 0 9542.75
v -5995.9375 0 9562.75
v -5995.9375 96 9562.75
v -6006.8125 96 9542.75
v -5995.9375 96 9562.75
v -5967 96 9547.75
v -5968.375 96 9547.25
v -5995.5 96 9561.5
v -5977.5625 96 9527.5
v -5978 96 9528.75
v -6006.8125 96 9542.75
v -6005.4375 96 9543.25
v -5995.5 96 9561.5
v -5968.375 96 9547.25
v -5968.375 93 9547.25
v -5995.5 93 9561.5
v -5968.375 96 9547.25
v -5978 96 9528.75
v -5978 93 9528.75
v -5968.375 93 9547.25
v -5978 96 9528.75
v -6005.4375 96 9543.25
v -6005.4375 93 9543.25
v -5978 93 9528.75
v -6005.4375 96 9543.25
v -5995.5 96 9561.5
v -5995.5 93 9561.5
v -6005.4375 93 9543.25
v -5978 93 9528.75
v -6005.4375 93 9543.25
v -5995.5 93 9561.5
v -5968.375 93 9547.25
v -5977.5625 0 9527.5
v -5967 0 9547.75
v -5995.9375 0 9562.75
v -6006.8125 0 9542.75
vn 0.4541205167770386 0 0.890940248966217
vn 0.4541205167770386 0 0.890940248966217
vn 0.4541205167770386 0 0.890940248966217
vn 0.4541205167770386 0 0.890940248966217
vn 0.8949864506721497 0 -0.4460932612419128
vn 0.8949864506721497 0 -0.4460932612419128
vn 0.8949864506721497 0 -0.4460932612419128
vn 0.8949864506721497 0 -0.4460932612419128
vn -0.4464934468269348 0 -0.8947868943214417
vn -0.4464934468269348 0 -0.8947868943214417
vn -0.4464934468269348 0 -0.8947868943214417
vn -0.4464934468269348 0 -0.8947868943214417
vn -0.8894121050834656 0 0.4571062326431274
vn -0.8894121050834656 0 0.4571062326431274
vn -0.8894121050834656 0 0.4571062326431274
vn -0.8894121050834656 0 0.4571062326431274
vn 0 1 0
vn 0 1 0
vn 0 1 0
vn 0 1 0
vn 0 1 0
vn 0 1 0
vn 0 1 0
vn 0 1 0
vn -0.4541205167770386 0 -0.890940248966217
vn -0.4541205167770386 0 -0.890940248966217
vn -0.4541205167770386 0 -0.890940248966217
vn -0.4541205167770386 0 -0.890940248966217
vn -0.8949864506721497 0 0.4460932612419128
vn -0.8949864506721497 0 0.4460932612419128
vn -0.8949864506721497 0 0.4460932612419128
vn -0.8949864506721497 0 0.4460932612419128
vn 0.8894121050834656 0 -0.4571062326431274
vn 0.8894121050834656 0 -0.4571062326431274
vn 0.8894121050834656 0 -0.4571062326431274
vn 0.8894121050834656 0 -0.4571062326431274
vn 0 1 0
vn 0 1 0
vn 0 1 0
vn 0 1 0
vn 0 -1 0
vn 0 -1 0
vn 0 -1 0
vn 0 -1 0
vn 0.4602062702178955 0 0.8878120183944702
vn 0.4602062702178955 0 0.8878120183944702
vn 0.4602062702178955 0 0.8878120183944702
vn 0.4602062702178955 0 0.8878120183944702
vn 0.8866151571273804 0 -0.4625079035758972
vn 0.8866151571273804 0 -0.4625079035758972
vn 0.8866151571273804 0 -0.4625079035758972
vn 0.8866151571273804 0 -0.4625079035758972
vn -0.4623096883296967 0 -0.8867185115814209
vn -0.4623096883296967 0 -0.8867185115814209
vn -0.4623096883296967 0 -0.8867185115814209
vn -0.4623096883296967 0 -0.8867185115814209
vn -0.878517746925354 0 0.4777096807956696
vn -0.878517746925354 0 0.4777096807956696
vn -0.878517746925354 0 0.4777096807956696
vn -0.878517746925354 0 0.4777096807956696
vn 0 1 0
vn 0 1 0
vn 0 1 0
vn 0 1 0
vn 0 1 0
vn 0 1 0
vn 0 1 0
vn 0 1 0
vn -0.4602062702178955 0 -0.8878120183944702
vn -0.4602062702178955 0 -0.8878120183944702
vn -0.4602062702178955 0 -0.8878120183944702
vn -0.4602062702178955 0 -0.8878120183944702
vn -0.8866151571273804 0 0.4625079035758972
vn -0.8866151571273804 0 0.4625079035758972
vn -0.8866151571273804 0 0.4625079035758972
vn -0.8866151571273804 0 0.4625079035758972
vn 0.4623096883296967 0 0.8867185115814209
vn 0.4623096883296967 0 0.8867185115814209
vn 0.4623096883296967 0 0.8867185115814209
vn 0.4623096883296967 0 0.8867185115814209
vn 0.878517746925354 0 -0.4777096807956696
vn 0.878517746925354 0 -0.4777096807956696
vn 0.878517746925354 0 -0.4777096807956696
vn 0.878517746925354 0 -0.4777096807956696
vn 0 1 0
vn 0 1 0
vn 0 1 0
vn 0 1 0
vn 0 -1 0
vn 0 -1 0
vn 0 -1 0
vn 0 -1 0
f 1//1 2//2 3//3 4//4
f 5//5 6//6 7//7 8//8
f 9//9 10//10 11//11 12//12
f 13//13 14//14 15//15 16//16
f 17//17 18//18 19//19 20//20
f 18//18 21//21 22//22 19//19
f 21//21 23//23 24//24 22//22
f 23//23 17//17 20//20 24//24
f 25//25 26//26 27//27 28//28
f 29//29 30//30 31//31 32//32
f 33//33 34//34 35//35 36//36
f 37//37 38//38 39//39 40//40
f 41//41 42//42 43//43 44//44
f 45//45 46//46 47//47 48//48
f 49//49 50//50 51//51 52//52
f 53//53 54//54 55//55 56//56
f 57//57 58//58 59//59 60//60
f 61//61 62//62 63//63 64//64
f 62//62 65//65 66//66 63//63
f 65//65 67//67 68//68 66//66
f 67//67 61//61 64//64 68//68
f 69//69 70//70 71//71 72//72
f 73//73 74//74 75//75 76//76
f 77//77 78//78 79//79 80//80
f 81//81 82//82 83//83 84//84
f 85//85 86//86 87//87 88//88
f 89//89 90//90 91//91 92//92
