# Rhino

g object_1
v -7892.25 0 7134
v -7874.0625 0 7154.75
v -7884.3125 0 7160.5
v -7897.625 0 7136.75
v -7891.75 0 7129.5
v -7847 0 7140.5
v -7894.0625 0 7130.75
v -7887 0 7067.5
v -7863.8125 0 7109.75
v -7917.25 0 7084.25
v -7858 0 7106.75
v -7841.3125 0 7137.25
v -7857.875 0 7146.25
v -7853.125 0 7148
v -7847.25 0 7144.5
v -7862.875 0 7149
v -7869.8125 0 7156.75
v -7863.375 0 7153.25
v -7892.25 60 7134
v -7897.625 60 7136.75
v -7884.3125 60 7160.5
v -7874.0625 60 7154.75
v -7891.75 60 7129.5
v -7894.0625 60 7130.75
v -7847 60 7140.5
v -7887 60 7067.5
v -7917.25 60 7084.25
v -7863.8125 60 7109.75
v -7841.3125 60 7137.25
v -7858 60 7106.75
v -7857.875 60 7146.25
v -7853.125 60 7148
v -7847.25 60 7144.5
v -7862.875 60 7149
v -7869.8125 60 7156.75
v -7863.375 60 7153.25
v -7884.3125 0 7160.5
v -7874.0625 0 7154.75
v -7874.0625 60 7154.75
v -7884.3125 60 7160.5
v -7897.625 0 7136.75
v -7884.3125 0 7160.5
v -7884.3125 60 7160.5
v -7897.625 60 7136.75
v -7892.25 0 7134
v -7897.625 0 7136.75
v -7897.625 60 7136.75
v -7892.25 60 7134
v -7894.0625 0 7130.75
v -7892.25 0 7134
v -7892.25 60 7134
v -7894.0625 60 7130.75
v -7891.75 0 7129.5
v -7894.0625 0 7130.75
v -7894.0625 60 7130.75
v -7891.75 60 7129.5
v -7917.25 0 7084.25
v -7891.75 0 7129.5
v -7891.75 60 7129.5
v -7917.25 60 7084.25
v -7887 0 7067.5
v -7917.25 0 7084.25
v -7917.25 60 7084.25
v -7887 60 7067.5
v -7863.8125 0 7109.75
v -7887 0 7067.5
v -7887 60 7067.5
v -7863.8125 60 7109.75
v -7858 0 7106.75
v -7863.8125 0 7109.75
v -7863.8125 60 7109.75
v -7858 60 7106.75
v -7841.3125 0 7137.25
v -7858 0 7106.75
v -7858 60 7106.75
v -7841.3125 60 7137.25
v -7847 0 7140.5
v -7841.3125 0 7137.25
v -7841.3125 60 7137.25
v -7847 60 7140.5
v -7847.25 0 7144.5
v -7847 0 7140.5
v -7847 60 7140.5
v -7847.25 60 7144.5
v -7853.125 0 7148
v -7847.25 0 7144.5
v -7847.25 60 7144.5
v -7853.125 60 7148
v -7857.875 0 7146.25
v -7853.125 0 7148
v -7853.125 60 7148
v -7857.875 60 7146.25
v -7862.875 0 7149
v -7857.875 0 7146.25
v -7857.875 60 7146.25
v -7862.875 60 7149
v -7863.375 0 7153.25
v -7862.875 0 7149
v -7862.875 60 7149
v -7863.375 60 7153.25
v -7869.8125 0 7156.75
v -7863.375 0 7153.25
v -7863.375 60 7153.25
v -7869.8125 60 7156.75
v -7874.0625 0 7154.75
v -7869.8125 0 7156.75
v -7869.8125 60 7156.75
v -7874.0625 60 7154.75
vn 0 -1 0
vn 0 -1 0
vn 0 -1 0
vn 0 -1 0
vn 0 -1 0
vn 0 -1 0
vn 0 -1 0
vn 0 -1 0
vn 0 -1 0
vn 0 -1 0
vn 0 -1 0
vn 0 -1 0
vn 0 -1 0
vn 0 -1 0
vn 0 -1 0
vn 0 -1 0
vn 0 -1 0
vn 0 -1 0
vn 0 1 0
vn 0 1 0
vn 0 1 0
vn 0 1 0
vn 0 1 0
vn 0 1 0
vn 0 1 0
vn 0 1 0
vn 0 1 0
vn 0 1 0
vn 0 1 0
vn 0 1 0
vn 0 1 0
vn 0 1 0
vn 0 1 0
vn 0 1 0
vn 0 1 0
vn 0 1 0
vn 0.489306628704071 0 0.8721117973327637
vn 0.489306628704071 0 0.8721117973327637
vn 0.489306628704071 0 0.8721117973327637
vn 0.489306628704071 0 0.8721117973327637
vn -0.8722876906394959 0 0.4889930784702301
vn -0.8722876906394959 0 0.4889930784702301
vn -0.8722876906394959 0 0.4889930784702301
vn -0.8722876906394959 0 0.4889930784702301
vn -0.455514520406723 0 -0.8902283310890198
vn -0.455514520406723 0 -0.8902283310890198
vn -0.455514520406723 0 -0.8902283310890198
vn -0.455514520406723 0 -0.8902283310890198
vn -0.873358964920044 0 0.4870771169662476
vn -0.873358964920044 0 0.4870771169662476
vn -0.873358964920044 0 0.4870771169662476
vn -0.873358964920044 0 0.4870771169662476
vn -0.4755065739154816 0 -0.8797121644020081
vn -0.4755065739154816 0 -0.8797121644020081
vn -0.4755065739154816 0 -0.8797121644020081
vn -0.4755065739154816 0 -0.8797121644020081
vn -0.8712120652198792 0 0.4909068048000336
vn -0.8712120652198792 0 0.4909068048000336
vn -0.8712120652198792 0 0.4909068048000336
vn -0.8712120652198792 0 0.4909068048000336
vn -0.4844197630882263 0 -0.8748356699943543
vn -0.4844197630882263 0 -0.8748356699943543
vn -0.4844197630882263 0 -0.8748356699943543
vn -0.4844197630882263 0 -0.8748356699943543
vn 0.8766736388206482 0 -0.4810855388641357
vn 0.8766736388206482 0 -0.4810855388641357
vn 0.8766736388206482 0 -0.4810855388641357
vn 0.8766736388206482 0 -0.4810855388641357
vn -0.4586174488067627 0 -0.8886337876319885
vn -0.4586174488067627 0 -0.8886337876319885
vn -0.4586174488067627 0 -0.8886337876319885
vn -0.4586174488067627 0 -0.8886337876319885
vn 0.8772757649421692 0 -0.4799867272377014
vn 0.8772757649421692 0 -0.4799867272377014
vn 0.8772757649421692 0 -0.4799867272377014
vn 0.8772757649421692 0 -0.4799867272377014
vn 0.4961281716823578 0 0.8682492971420288
vn 0.4961281716823578 0 0.8682492971420288
vn 0.4961281716823578 0 0.8682492971420288
vn 0.4961281716823578 0 0.8682492971420288
vn 0.9980514049530029 0 0.06239696219563484
vn 0.9980514049530029 0 0.06239696219563484
vn 0.9980514049530029 0 0.06239696219563484
vn 0.9980514049530029 0 0.06239696219563484
vn 0.5118020176887512 0 0.8591034412384033
vn 0.5118020176887512 0 0.8591034412384033
vn 0.5118020176887512 0 0.8591034412384033
vn 0.5118020176887512 0 0.8591034412384033
vn -0.3457146286964417 0 0.9383397102355957
vn -0.3457146286964417 0 0.9383397102355957
vn -0.3457146286964417 0 0.9383397102355957
vn -0.3457146286964417 0 0.9383397102355957
vn 0.4819110631942749 0 0.8762201070785523
vn 0.4819110631942749 0 0.8762201070785523
vn 0.4819110631942749 0 0.8762201070785523
vn 0.4819110631942749 0 0.8762201070785523
vn 0.9931560754776001 0 0.1167948320508003
vn 0.9931560754776001 0 0.1167948320508003
vn 0.9931560754776001 0 0.1167948320508003
vn 0.9931560754776001 0 0.1167948320508003
vn 0.4777096807956696 0 0.878517746925354
vn 0.4777096807956696 0 0.878517746925354
vn 0.4777096807956696 0 0.878517746925354
vn 0.4777096807956696 0 0.878517746925354
vn -0.4258066713809967 0 0.9048141837120056
vn -0.4258066713809967 0 0.9048141837120056
vn -0.4258066713809967 0 0.9048141837120056
vn -0.4258066713809967 0 0.9048141837120056
f 1//1 2//2 3//3 4//4
f 5//5 6//6 1//1 7//7
f 8//8 9//9 5//5 10//10
f 6//6 9//9 11//11 12//12
f 6//6 5//5 9//9
f 6//6 13//13 2//2 1//1
f 14//14 13//13 6//6 15//15
f 16//16 17//17 2//2 13//13
f 16//16 18//18 17//17
f 19//19 20//20 21//21 22//22
f 23//23 24//24 19//19 25//25
f 26//26 27//27 23//23 28//28
f 25//25 29//29 30//30 28//28
f 25//25 28//28 23//23
f 25//25 19//19 22//22 31//31
f 32//32 33//33 25//25 31//31
f 34//34 31//31 22//22 35//35
f 34//34 35//35 36//36
f 37//37 38//38 39//39 40//40
f 41//41 42//42 43//43 44//44
f 45//45 46//46 47//47 48//48
f 49//49 50//50 51//51 52//52
f 53//53 54//54 55//55 56//56
f 57//57 58//58 59//59 60//60
f 61//61 62//62 63//63 64//64
f 65//65 66//66 67//67 68//68
f 69//69 70//70 71//71 72//72
f 73//73 74//74 75//75 76//76
f 77//77 78//78 79//79 80//80
f 81//81 82//82 83//83 84//84
f 85//85 86//86 87//87 88//88
f 89//89 90//90 91//91 92//92
f 93//93 94//94 95//95 96//96
f 97//97 98//98 99//99 100//100
f 101//101 102//102 103//103 104//104
f 105//105 106//106 107//107 108//108
