# Rhino

g object_1
v 1856.125 72 -736
v 1896.75 72 -701.75
v 1839.5625 72 -715.5
v 1809.375 72 -678.75
v 1843.8125 72 -644.25
v 1852.5625 72 -644.25
v 1898.0625 72 -699.25
vn 0 -1 0
vn 0 -1 0
vn 0 -1 0
vn 0 -1 0
vn 0 -1 0
vn 0 -1 0
vn 0 -1 0
f 1//1 2//2 3//3
f 4//4 3//3 5//5
f 5//5 3//3 6//6
f 7//7 6//6 2//2
f 3//3 2//2 6//6
g object_2
v 1809.375 0 -678.75
v 1843.8125 0 -644.25
v 1839.5625 0 -715.5
v 1856.125 0 -736
v 1896.75 0 -701.75
v 1898.0625 0 -699.25
v 1852.5625 0 -644.25
vn 0 1 0
vn 0 1 0
vn 0 1 0
vn 0 1 0
vn 0 1 0
vn 0 1 0
vn 0 1 0
f 8//8 9//9 10//10
f 11//11 10//10 12//12
f 13//13 12//12 14//14
f 12//12 10//10 14//14
f 9//9 14//14 10//10
g object_3
v 1839.5625 0 -715.5
v 1809.375 72 -678.75
v 1839.5625 72 -715.5
v 1809.375 0 -678.75
vn -0.7727349996566773 0 -0.634728729724884
vn -0.7727349996566773 0 -0.634728729724884
vn -0.7727349996566773 0 -0.634728729724884
vn -0.7727349996566773 0 -0.634728729724884
f 15//15 16//16 17//17
f 18//18 16//16 15//15
g object_4
v 1809.375 72 -678.75
v 1843.8125 72 -644.25
v 1809.375 0 -678.75
v 1843.8125 0 -644.25
vn 0.7077065706253052 0 -0.7065064907073975
vn 0.7077065706253052 0 -0.7065064907073975
vn 0.7077065706253052 0 -0.7065064907073975
vn 0.7077065706253052 0 -0.7065064907073975
f 19//19 20//20 21//21
f 21//21 20//20 22//22
g object_5
v 1843.8125 72 -644.25
v 1852.5625 72 -644.25
v 1843.8125 0 -644.25
v 1852.5625 0 -644.25
vn 0 0 -1
vn 0 0 -1
vn 0 0 -1
vn 0 0 -1
f 23//23 24//24 25//25
f 25//25 24//24 26//26
g object_6
v 1852.5625 72 -644.25
v 1898.0625 72 -699.25
v 1852.5625 0 -644.25
v 1898.0625 0 -699.25
vn -0.7705196738243103 0 -0.6374162435531616
vn -0.7705196738243103 0 -0.6374162435531616
vn -0.7705196738243103 0 -0.6374162435531616
vn -0.7705196738243103 0 -0.6374162435531616
f 27//27 28//28 29//29
f 29//29 28//28 30//30
g object_7
v 1898.0625 72 -699.25
v 1896.75 72 -701.75
v 1898.0625 0 -699.25
v 1896.75 0 -701.75
vn -0.885412335395813 0 0.464806467294693
vn -0.885412335395813 0 0.464806467294693
vn -0.885412335395813 0 0.464806467294693
vn -0.885412335395813 0 0.464806467294693
f 31//31 32//32 33//33
f 33//33 32//32 34//34
g object_8
v 1896.75 72 -701.75
v 1856.125 72 -736
v 1896.75 0 -701.75
v 1856.125 0 -736
vn -0.644609808921814 0 0.7645117044448853
vn -0.644609808921814 0 0.7645117044448853
vn -0.644609808921814 0 0.7645117044448853
vn -0.644609808921814 0 0.7645117044448853
f 35//35 36//36 37//37
f 37//37 36//36 38//38
g object_9
v 1856.125 0 -736
v 1839.5625 72 -715.5
v 1856.125 72 -736
v 1839.5625 0 -715.5
vn -0.777894139289856 0 -0.6283953189849854
vn -0.777894139289856 0 -0.6283953189849854
vn -0.777894139289856 0 -0.6283953189849854
vn -0.777894139289856 0 -0.6283953189849854
f 39//39 40//40 41//41
f 42//42 40//40 39//39
