# Rhino

g object_1
v -5098.625 0 9291.5
v -4966.6875 0 9138.25
v -4922.375 0 9176.5
v -5054.3125 0 9329.75
v -5098.625 72 9291.5
v -5054.3125 72 9329.75
v -4922.375 72 9176.5
v -4966.6875 72 9138.25
v -4922.375 0 9176.5
v -4966.6875 0 9138.25
v -4966.6875 72 9138.25
v -4922.375 72 9176.5
v -5054.3125 0 9329.75
v -4922.375 0 9176.5
v -4922.375 72 9176.5
v -5054.3125 72 9329.75
v -5098.625 0 9291.5
v -5054.3125 0 9329.75
v -5054.3125 72 9329.75
v -5098.625 72 9291.5
v -4966.6875 0 9138.25
v -5098.625 0 9291.5
v -5098.625 72 9291.5
v -4966.6875 72 9138.25
vn 0 -1 0
vn 0 -1 0
vn 0 -1 0
vn 0 -1 0
vn 0 1 0
vn 0 1 0
vn 0 1 0
vn 0 1 0
vn 0.6534063220024109 0 -0.757007360458374
vn 0.6534063220024109 0 -0.757007360458374
vn 0.6534063220024109 0 -0.757007360458374
vn 0.6534063220024109 0 -0.757007360458374
vn 0.7578429579734802 0 0.6524370312690735
vn 0.7578429579734802 0 0.6524370312690735
vn 0.7578429579734802 0 0.6524370312690735
vn 0.7578429579734802 0 0.6524370312690735
vn -0.6534063220024109 0 0.757007360458374
vn -0.6534063220024109 0 0.757007360458374
vn -0.6534063220024109 0 0.757007360458374
vn -0.6534063220024109 0 0.757007360458374
vn -0.7578429579734802 0 -0.6524370312690735
vn -0.7578429579734802 0 -0.6524370312690735
vn -0.7578429579734802 0 -0.6524370312690735
vn -0.7578429579734802 0 -0.6524370312690735
f 1//1 2//2 3//3 4//4
f 5//5 6//6 7//7 8//8
f 9//9 10//10 11//11 12//12
f 13//13 14//14 15//15 16//16
f 17//17 18//18 19//19 20//20
f 21//21 22//22 23//23 24//24
