# Rhino

g object_1
v -1852.3125 0 7383.25
v -1852.3125 0 7383.25
v -1890.875 0 7432.75
v -1890.875 0 7432.75
v -1890.875 69 7432.75
v -1890.875 69 7432.75
v -1890.875 69 7432.75
v -1852.3125 69 7383.25
v -1852.3125 69 7383.25
v -1852.3125 69 7383.25
v -1797.1875 0 7474.25
v -1797.1875 0 7474.25
v -1797.1875 69 7474.25
v -1797.1875 69 7474.25
v -1797.1875 69 7474.25
v -1770.125 0 7417.25
v -1770.125 0 7417.25
v -1770.125 69 7417.25
v -1770.125 69 7417.25
v -1770.125 69 7417.25
v -1852.25 0 7383
v -1852.25 0 7383
v -1938.1875 0 7286
v -1938.1875 0 7286
v -1938.1875 82 7286
v -1938.1875 82 7286
v -1938.1875 82 7286
v -1852.25 82 7383
v -1852.25 82 7383
v -1852.25 82 7383
v -1984.6875 0 7328.75
v -1984.6875 0 7328.75
v -1984.6875 82 7328.75
v -1984.6875 82 7328.75
v -1984.6875 82 7328.75
v -1890.75 0 7433.25
v -1890.75 0 7433.25
v -1890.75 82 7433.25
v -1890.75 82 7433.25
v -1890.75 82 7433.25
v -1895.3125 0 7241.75
v -1895.3125 0 7241.75
v -1959 0 7214.5
v -1959 0 7214.5
v -1959 10 7214.5
v -1959 10 7214.5
v -1959 10 7214.5
v -1895.3125 10 7241.75
v -1895.3125 10 7241.75
v -1895.3125 10 7241.75
v -1982.0625 0 7238.75
v -1982.0625 0 7238.75
v -1982.0625 10 7238.75
v -1982.0625 10 7238.75
v -1982.0625 10 7238.75
v -1937.375 0 7290.25
v -1937.375 0 7290.25
v -1937.375 10 7290.25
v -1937.375 10 7290.25
v -1937.375 10 7290.25
v -1838.625 0 7366.75
v -1838.625 0 7366.75
v -1853.8125 0 7353.5
v -1853.8125 0 7353.5
v -1853.8125 33 7353.5
v -1853.8125 33 7353.5
v -1853.8125 33 7353.5
v -1838.625 33 7366.75
v -1838.625 33 7366.75
v -1838.625 33 7366.75
v -1869.8125 0 7368.25
v -1869.8125 0 7368.25
v -1869.8125 33 7368.25
v -1869.8125 33 7368.25
v -1869.8125 33 7368.25
v -1850.1875 0 7386.25
v -1850.1875 0 7386.25
v -1850.1875 33 7386.25
v -1850.1875 33 7386.25
v -1850.1875 33 7386.25
v -1776.875 0 7293.5
v -1776.875 0 7293.5
v -1830.6875 0 7269.25
v -1830.6875 0 7269.25
v -1830.6875 12 7269.25
v -1830.6875 12 7269.25
v -1830.6875 12 7269.25
v -1776.875 12 7293.5
v -1776.875 12 7293.5
v -1776.875 12 7293.5
v -1842.75 0 7297
v -1842.75 0 7297
v -1842.75 12 7297
v -1842.75 12 7297
v -1842.75 12 7297
v -1857 0 7308
v -1857 0 7308
v -1857 12 7308
v -1857 12 7308
v -1857 12 7308
v -1825.5625 0 7342.75
v -1825.5625 0 7342.75
v -1825.5625 12 7342.75
v -1825.5625 12 7342.75
v -1825.5625 12 7342.75
v -1801.75 0 7353
v -1801.75 0 7353
v -1801.75 12 7353
v -1801.75 12 7353
v -1801.75 12 7353
v -1939.8125 0 7287.75
v -1939.8125 0 7287.75
v -1982.5 0 7239.25
v -1982.5 0 7239.25
v -1982.5 69 7239.25
v -1982.5 69 7239.25
v -1982.5 69 7239.25
v -1939.8125 69 7287.75
v -1939.8125 69 7287.75
v -1939.8125 69 7287.75
v -2025.8125 0 7283
v -2025.8125 0 7283
v -2025.8125 69 7283
v -2025.8125 69 7283
v -2025.8125 69 7283
v -1984.4375 0 7328.75
v -1984.4375 0 7328.75
v -1984.4375 69 7328.75
v -1984.4375 69 7328.75
v -1984.4375 69 7328.75
v -1612.8125 0 7406
v -1612.8125 0 7406
v -1600.625 0 7400.75
v -1600.625 0 7400.75
v -1600.625 21 7400.75
v -1600.625 21 7400.75
v -1600.625 21 7400.75
v -1612.8125 21 7406
v -1612.8125 21 7406
v -1612.8125 21 7406
v -1593.8125 0 7403.75
v -1593.8125 0 7403.75
v -1593.8125 21 7403.75
v -1593.8125 21 7403.75
v -1593.8125 21 7403.75
v -1582.3125 0 7375.5
v -1582.3125 0 7375.5
v -1582.3125 21 7375.5
v -1582.3125 21 7375.5
v -1582.3125 21 7375.5
v -1778.6875 0 7292.75
v -1778.6875 0 7292.75
v -1778.6875 21 7292.75
v -1778.6875 21 7292.75
v -1778.6875 21 7292.75
v -1802.9375 0 7351.25
v -1802.9375 0 7351.25
v -1802.9375 21 7351.25
v -1802.9375 21 7351.25
v -1802.9375 21 7351.25
v -1824.75 0 7342.25
v -1824.75 0 7342.25
v -1824.75 21 7342.25
v -1824.75 21 7342.25
v -1824.75 21 7342.25
v -1855.5 0 7306.25
v -1855.5 0 7306.25
v -1855.5 21 7306.25
v -1855.5 21 7306.25
v -1855.5 21 7306.25
v -1886.625 0 7302
v -1886.625 0 7302
v -1886.625 21 7302
v -1886.625 21 7302
v -1886.625 21 7302
v -1911.25 0 7275.75
v -1911.25 0 7275.75
v -1911.25 21 7275.75
v -1911.25 21 7275.75
v -1911.25 21 7275.75
v -1931.125 0 7294.75
v -1931.125 0 7294.75
v -1931.125 21 7294.75
v -1931.125 21 7294.75
v -1931.125 21 7294.75
v -1853.0625 0 7382.75
v -1853.0625 0 7382.75
v -1853.0625 21 7382.75
v -1853.0625 21 7382.75
v -1853.0625 21 7382.75
v -1641.125 0 7473.5
v -1641.125 0 7473.5
v -1641.125 21 7473.5
v -1641.125 21 7473.5
v -1641.125 21 7473.5
v -1931.4375 0 7280.5
v -1931.4375 0 7280.5
v -1946.3125 0 7280.5
v -1946.3125 0 7280.5
v -1946.3125 94 7280.5
v -1946.3125 94 7280.5
v -1946.3125 94 7280.5
v -1931.4375 94 7280.5
v -1931.4375 94 7280.5
v -1931.4375 94 7280.5
v -1946.3125 0 7294
v -1946.3125 0 7294
v -1946.3125 94 7294
v -1946.3125 94 7294
v -1946.3125 94 7294
v -1931.4375 0 7294
v -1931.4375 0 7294
v -1931.4375 94 7294
v -1931.4375 94 7294
v -1931.4375 94 7294
v -1866.625 0 7402
v -1866.625 0 7402
v -1876.125 0 7394.75
v -1876.125 0 7394.75
v -1876.125 94 7394.75
v -1876.125 94 7394.75
v -1876.125 94 7394.75
v -1866.625 94 7402
v -1866.625 94 7402
v -1866.625 94 7402
v -1882.875 0 7403.5
v -1882.875 0 7403.5
v -1882.875 94 7403.5
v -1882.875 94 7403.5
v -1882.875 94 7403.5
v -1873.375 0 7410.75
v -1873.375 0 7410.75
v -1873.375 94 7410.75
v -1873.375 94 7410.75
v -1873.375 94 7410.75
v -1866.75 0 7327
v -1866.75 0 7327
v -1872.9375 0 7320.5
v -1872.9375 0 7320.5
v -1873 101 7322
v -1873 101 7322
v -1873 101 7322
v -1868.4375 101 7327
v -1868.4375 101 7327
v -1868.4375 101 7327
v -1879.5 0 7326.5
v -1879.5 0 7326.5
v -1877.8125 101 7326.5
v -1877.8125 101 7326.5
v -1877.8125 101 7326.5
v -1873.3125 0 7333
v -1873.3125 0 7333
v -1873.25 101 7331.5
v -1873.25 101 7331.5
v -1873.25 101 7331.5
v -1873 101 7323.5
v -1873 101 7323.5
v -1873 101 7323.5
v -1869.875 101 7326.75
v -1869.875 101 7326.75
v -1869.875 101 7326.75
v -1876.375 101 7326.75
v -1876.375 101 7326.75
v -1876.375 101 7326.75
v -1873.25 101 7330
v -1873.25 101 7330
v -1873.25 101 7330
v -1873 98 7323.5
v -1873 98 7323.5
v -1873 98 7323.5
v -1869.875 98 7326.75
v -1869.875 98 7326.75
v -1869.875 98 7326.75
v -1876.375 98 7326.75
v -1876.375 98 7326.75
v -1876.375 98 7326.75
v -1873.25 98 7330
v -1873.25 98 7330
v -1873.25 98 7330
v -1778.375 12 7292.75
v -1778.375 12 7292.75
v -1796.0625 12 7285.25
v -1796.0625 12 7285.25
v -1796.0625 26 7285.25
v -1796.0625 26 7285.25
v -1796.0625 26 7285.25
v -1778.375 26 7292.75
v -1778.375 26 7292.75
v -1778.375 26 7292.75
v -1807.375 12 7311.75
v -1807.375 12 7311.75
v -1807.375 26 7311.75
v -1807.375 26 7311.75
v -1807.375 26 7311.75
v -1789.6875 12 7319.25
v -1789.6875 12 7319.25
v -1789.6875 26 7319.25
v -1789.6875 26 7319.25
v -1789.6875 26 7319.25
v -1801.8125 12 7282.75
v -1801.8125 12 7282.75
v -1801.8125 12 7282.75
v -1814.1875 12 7277.5
v -1814.1875 12 7277.5
v -1814.1875 12 7277.5
v -1818.5625 26 7287.5
v -1818.5625 26 7287.5
v -1818.5625 26 7287.5
v -1806.1875 26 7293
v -1806.1875 26 7293
v -1806.1875 26 7293
v -1822.9375 12 7297.75
v -1822.9375 12 7297.75
v -1822.9375 12 7297.75
v -1810.5625 12 7303
v -1810.5625 12 7303
v -1810.5625 12 7303
vn -0.7888619899749756 0 -0.6145703792572022
vn 0.3822782039642334 0 -0.9240472912788391
vn -0.7888619899749756 0 -0.6145703792572022
vn -0.4050061702728272 0 0.9143139719963074
vn -0.7888619899749756 0 -0.6145703792572022
vn -0.4050061702728272 0 0.9143139719963074
vn 0 1 0
vn -0.7888619899749756 0 -0.6145703792572022
vn 0.3822782039642334 0 -0.9240472912788391
vn 0 1 0
vn -0.4050061702728272 0 0.9143139719963074
vn 0.9033607840538025 0 0.4288814067840576
vn -0.4050061702728272 0 0.9143139719963074
vn 0.9033607840538025 0 0.4288814067840576
vn 0 1 0
vn 0.9033607840538025 0 0.4288814067840576
vn 0.3822782039642334 0 -0.9240472912788391
vn 0.9033607840538025 0 0.4288814067840576
vn 0.3822782039642334 0 -0.9240472912788391
vn 0 1 0
vn 0.7485172748565674 0 -0.6631153225898743
vn 0.793789803981781 0 0.6081922054290772
vn 0.7485172748565674 0 -0.6631153225898743
vn -0.676783561706543 0 -0.7361820936203003
vn 0.7485172748565674 0 -0.6631153225898743
vn -0.676783561706543 0 -0.7361820936203003
vn 0 1 0
vn 0.7485172748565674 0 -0.6631153225898743
vn 0.793789803981781 0 0.6081922054290772
vn 0 1 0
vn -0.676783561706543 0 -0.7361820936203003
vn -0.7437067031860352 0 0.6685060262680054
vn -0.676783561706543 0 -0.7361820936203003
vn -0.7437067031860352 0 0.6685060262680054
vn 0 1 0
vn -0.7437067031860352 0 0.6685060262680054
vn 0.793789803981781 0 0.6081922054290772
vn -0.7437067031860352 0 0.6685060262680054
vn 0.793789803981781 0 0.6081922054290772
vn 0 1 0
vn 0.3933882415294647 0 -0.9193724393844605
vn 0.7554745674133301 0 0.6551779508590698
vn 0.3933882415294647 0 -0.9193724393844605
vn -0.7246347665786743 0 -0.6891331076622009
vn 0.3933882415294647 0 -0.9193724393844605
vn -0.7246347665786743 0 -0.6891331076622009
vn 0 1 0
vn 0.3933882415294647 0 -0.9193724393844605
vn 0.7554745674133301 0 0.6551779508590698
vn 0 1 0
vn -0.7246347665786743 0 -0.6891331076622009
vn -0.7552897334098816 0 0.6553910374641419
vn -0.7246347665786743 0 -0.6891331076622009
vn -0.7552897334098816 0 0.6553910374641419
vn 0 1 0
vn -0.7552897334098816 0 0.6553910374641419
vn 0.7554745674133301 0 0.6551779508590698
vn -0.7552897334098816 0 0.6553910374641419
vn 0.7554745674133301 0 0.6551779508590698
vn 0 1 0
vn 0.6574206948280335 0 -0.7535237073898315
vn 0.8601810336112976 0 0.5099887847900391
vn 0.6574206948280335 0 -0.7535237073898315
vn -0.6778230667114258 0 -0.7352250218391419
vn 0.6574206948280335 0 -0.7535237073898315
vn -0.6778230667114258 0 -0.7352250218391419
vn 0 1 0
vn 0.6574206948280335 0 -0.7535237073898315
vn 0.8601810336112976 0 0.5099887847900391
vn 0 1 0
vn -0.6778230667114258 0 -0.7352250218391419
vn -0.6758967041969299 0 0.7369964122772217
vn -0.6778230667114258 0 -0.7352250218391419
vn -0.6758967041969299 0 0.7369964122772217
vn 0 1 0
vn -0.6758967041969299 0 0.7369964122772217
vn 0.8601810336112976 0 0.5099887847900391
vn -0.6758967041969299 0 0.7369964122772217
vn 0.8601810336112976 0 0.5099887847900391
vn 0 1 0
vn 0.4108095467090607 0 -0.9117211699485779
vn 0.9226206541061401 0 0.3857086300849915
vn 0.4108095467090607 0 -0.9117211699485779
vn -0.9170843958854675 0 -0.3986932039260864
vn 0.4108095467090607 0 -0.9117211699485779
vn -0.9170843958854675 0 -0.3986932039260864
vn 0 1 0
vn 0.4108095467090607 0 -0.9117211699485779
vn 0.9226206541061401 0 0.3857086300849915
vn 0 1 0
vn -0.9170843958854675 0 -0.3986932039260864
vn -0.6110774874687195 0 -0.791570782661438
vn -0.9170843958854675 0 -0.3986932039260864
vn -0.6110774874687195 0 -0.791570782661438
vn 0 1 0
vn -0.6110774874687195 0 -0.791570782661438
vn -0.741571307182312 0 0.6708740592002869
vn -0.6110774874687195 0 -0.791570782661438
vn -0.741571307182312 0 0.6708740592002869
vn 0 1 0
vn -0.741571307182312 0 0.6708740592002869
vn -0.395403265953064 0 0.9185076355934143
vn -0.741571307182312 0 0.6708740592002869
vn -0.395403265953064 0 0.9185076355934143
vn 0 1 0
vn -0.395403265953064 0 0.9185076355934143
vn 0.9226206541061401 0 0.3857086300849915
vn -0.395403265953064 0 0.9185076355934143
vn 0.9226206541061401 0 0.3857086300849915
vn 0 1 0
vn 0.7506718635559082 0 -0.6606752276420593
vn 0.6765754818916321 0 0.7363733053207398
vn 0.7506718635559082 0 -0.6606752276420593
vn -0.7106975913047791 0 -0.7034976482391357
vn 0.7506718635559082 0 -0.6606752276420593
vn -0.7106975913047791 0 -0.7034976482391357
vn 0 1 0
vn 0.7506718635559082 0 -0.6606752276420593
vn 0.6765754818916321 0 0.7363733053207398
vn 0 1 0
vn -0.7106975913047791 0 -0.7034976482391357
vn -0.7416660785675049 0 0.6707692742347717
vn -0.7106975913047791 0 -0.7034976482391357
vn -0.7416660785675049 0 0.6707692742347717
vn 0 1 0
vn -0.7416660785675049 0 0.6707692742347717
vn 0.6765754818916321 0 0.7363733053207398
vn -0.7416660785675049 0 0.6707692742347717
vn 0.6765754818916321 0 0.7363733053207398
vn 0 1 0
vn 0.710498571395874 0 0.7036986351013184
vn 0.710498571395874 0 0.7036986351013184
vn 0.3956083059310913 0 0.9184193015098572
vn -0.4029999971389771 0 0.9151999950408936
vn 0.3956083059310913 0 0.9184193015098572
vn -0.4029999971389771 0 0.9151999950408936
vn 0 1 0
vn 0.710498571395874 0 0.7036986351013184
vn 0.710498571395874 0 0.7036986351013184
vn 0 1 0
vn -0.4029999971389771 0 0.9151999950408936
vn 0.9262113571166992 0 0.3770046532154083
vn -0.4029999971389771 0 0.9151999950408936
vn 0.9262113571166992 0 0.3770046532154083
vn 0 1 0
vn 0.9262113571166992 0 0.3770046532154083
vn 0.3883118033409119 0 -0.9215280413627625
vn 0.9262113571166992 0 0.3770046532154083
vn 0.3883118033409119 0 -0.9215280413627625
vn 0 1 0
vn 0.3883118033409119 0 -0.9215280413627625
vn -0.9237912893295288 0 -0.3828963935375214
vn 0.3883118033409119 0 -0.9215280413627625
vn -0.9237912893295288 0 -0.3828963935375214
vn 0 1 0
vn -0.9237912893295288 0 -0.3828963935375214
vn 0.3814035654067993 0 -0.9244086146354675
vn -0.9237912893295288 0 -0.3828963935375214
vn 0.3814035654067993 0 -0.9244086146354675
vn 0 1 0
vn 0.3814035654067993 0 -0.9244086146354675
vn 0.7603777647018433 0 -0.6494810581207275
vn 0.3814035654067993 0 -0.9244086146354675
vn 0.7603777647018433 0 -0.6494810581207275
vn 0 1 0
vn 0.7603777647018433 0 -0.6494810581207275
vn 0.1353006213903427 0 -0.9908046126365662
vn 0.7603777647018433 0 -0.6494810581207275
vn 0.1353006213903427 0 -0.9908046126365662
vn 0 1 0
vn 0.1353006213903427 0 -0.9908046126365662
vn 0.7292970418930054 0 -0.6841971874237061
vn 0.1353006213903427 0 -0.9908046126365662
vn 0.7292970418930054 0 -0.6841971874237061
vn 0 1 0
vn 0.7292970418930054 0 -0.6841971874237061
vn -0.6910273432731628 0 -0.7228286266326904
vn 0.7292970418930054 0 -0.6841971874237061
vn -0.6910273432731628 0 -0.7228286266326904
vn 0 1 0
vn -0.6910273432731628 0 -0.7228286266326904
vn -0.7480930089950562 0 0.6635938882827759
vn -0.6910273432731628 0 -0.7228286266326904
vn -0.7480930089950562 0 0.6635938882827759
vn 0 1 0
vn -0.7480930089950562 0 0.6635938882827759
vn -0.3935934007167816 0 0.9192846417427063
vn -0.7480930089950562 0 0.6635938882827759
vn -0.3935934007167816 0 0.9192846417427063
vn 0 1 0
vn -0.3935934007167816 0 0.9192846417427063
vn 0.9221690893173218 0 0.3867869973182678
vn -0.3935934007167816 0 0.9192846417427063
vn 0.9221690893173218 0 0.3867869973182678
vn 0 1 0
vn 0 0 -1
vn 1 0 0
vn 0 0 -1
vn -1 0 0
vn 0 0 -1
vn -1 0 0
vn 0 1 0
vn 0 0 -1
vn 1 0 0
vn 0 1 0
vn -1 0 0
vn 0 0 1
vn -1 0 0
vn 0 0 1
vn 0 1 0
vn 0 0 1
vn 1 0 0
vn 0 0 1
vn 1 0 0
vn 0 1 0
vn 0.6140029430389404 0 -0.7893037796020508
vn 0.7893037796020508 0 0.6140029430389404
vn 0.6140029430389404 0 -0.7893037796020508
vn -0.7893037796020508 0 -0.6140029430389404
vn 0.6140029430389404 0 -0.7893037796020508
vn -0.7893037796020508 0 -0.6140029430389404
vn 0 1 0
vn 0.6140029430389404 0 -0.7893037796020508
vn 0.7893037796020508 0 0.6140029430389404
vn 0 1 0
vn -0.7893037796020508 0 -0.6140029430389404
vn -0.6140029430389404 0 0.7893037796020508
vn -0.7893037796020508 0 -0.6140029430389404
vn -0.6140029430389404 0 0.7893037796020508
vn 0 1 0
vn -0.6140029430389404 0 0.7893037796020508
vn 0.7893037796020508 0 0.6140029430389404
vn -0.6140029430389404 0 0.7893037796020508
vn 0.7893037796020508 0 0.6140029430389404
vn 0 1 0
vn 0.7275992035865784 0.0118999881669879 -0.6858992576599121
vn 0.6858992576599121 0.0118999881669879 0.7275992035865784
vn 0.7275992035865784 0.0118999881669879 -0.6858992576599121
vn -0.6858992576599121 0.0118999881669879 -0.7275992035865784
vn 0.7275992035865784 0.0118999881669879 -0.6858992576599121
vn -0.6858992576599121 0.0118999881669879 -0.7275992035865784
vn 0 1 0
vn 0.7275992035865784 0.0118999881669879 -0.6858992576599121
vn 0.6858992576599121 0.0118999881669879 0.7275992035865784
vn 0 1 0
vn -0.6858992576599121 0.0118999881669879 -0.7275992035865784
vn -0.7275992035865784 0.0118999881669879 0.6858992576599121
vn -0.6858992576599121 0.0118999881669879 -0.7275992035865784
vn -0.7275992035865784 0.0118999881669879 0.6858992576599121
vn 0 1 0
vn -0.7275992035865784 0.0118999881669879 0.6858992576599121
vn 0.6858992576599121 0.0118999881669879 0.7275992035865784
vn -0.7275992035865784 0.0118999881669879 0.6858992576599121
vn 0.6858992576599121 0.0118999881669879 0.7275992035865784
vn 0 1 0
vn 0 1 0
vn -0.7276008129119873 0 0.6860007643699646
vn 0.6860007643699646 0 0.7276008129119873
vn 0 1 0
vn -0.7276008129119873 0 0.6860007643699646
vn -0.6860007643699646 0 -0.7276008129119873
vn 0 1 0
vn 0.6860007643699646 0 0.7276008129119873
vn 0.7276008129119873 0 -0.6860007643699646
vn 0 1 0
vn 0.7276008129119873 0 -0.6860007643699646
vn -0.6860007643699646 0 -0.7276008129119873
vn 0 1 0
vn -0.7276008129119873 0 0.6860007643699646
vn 0.6860007643699646 0 0.7276008129119873
vn 0 1 0
vn -0.7276008129119873 0 0.6860007643699646
vn -0.6860007643699646 0 -0.7276008129119873
vn 0 1 0
vn 0.6860007643699646 0 0.7276008129119873
vn 0.7276008129119873 0 -0.6860007643699646
vn 0 1 0
vn 0.7276008129119873 0 -0.6860007643699646
vn -0.6860007643699646 0 -0.7276008129119873
vn 0.3931830227375031 0 -0.9194602370262146
vn 0.9194602370262146 0 0.3931830227375031
vn 0.3931830227375031 0 -0.9194602370262146
vn -0.9194602370262146 0 -0.3931830227375031
vn 0.3931830227375031 0 -0.9194602370262146
vn -0.9194602370262146 0 -0.3931830227375031
vn 0 1 0
vn 0.3931830227375031 0 -0.9194602370262146
vn 0.9194602370262146 0 0.3931830227375031
vn 0 1 0
vn -0.9194602370262146 0 -0.3931830227375031
vn -0.3931830227375031 0 0.9194602370262146
vn -0.9194602370262146 0 -0.3931830227375031
vn -0.3931830227375031 0 0.9194602370262146
vn 0 1 0
vn -0.3931830227375031 0 0.9194602370262146
vn 0.9194602370262146 0 0.3931830227375031
vn -0.3931830227375031 0 0.9194602370262146
vn 0.9194602370262146 0 0.3931830227375031
vn 0 1 0
vn 0.307990312576294 0.6216804385185242 -0.7201773524284363
vn 0.9194602370262146 0 0.3931830227375031
vn 0 -1 0
vn 0.307990312576294 0.6216804385185242 -0.7201773524284363
vn -0.9194602370262146 0 -0.3931830227375031
vn 0 -1 0
vn 0.307990312576294 0.6216804385185242 -0.7201773524284363
vn -0.9194602370262146 0 -0.3931830227375031
vn -0.307990312576294 0.6216804385185242 0.7201773524284363
vn 0.307990312576294 0.6216804385185242 -0.7201773524284363
vn 0.9194602370262146 0 0.3931830227375031
vn -0.307990312576294 0.6216804385185242 0.7201773524284363
vn -0.9194602370262146 0 -0.3931830227375031
vn -0.307990312576294 0.6216804385185242 0.7201773524284363
vn 0 -1 0
vn 0.9194602370262146 0 0.3931830227375031
vn -0.307990312576294 0.6216804385185242 0.7201773524284363
vn 0 -1 0
f 1//1 3//3 5//5 8//8
f 4//4 11//11 13//13 6//6
f 12//12 16//16 18//18 14//14
f 17//17 2//2 9//9 19//19
f 10//10 7//7 15//15 20//20
f 21//21 23//23 25//25 28//28
f 24//24 31//31 33//33 26//26
f 32//32 36//36 38//38 34//34
f 37//37 22//22 29//29 39//39
f 35//35 40//40 30//30 27//27
f 41//41 43//43 45//45 48//48
f 44//44 51//51 53//53 46//46
f 52//52 56//56 58//58 54//54
f 57//57 42//42 49//49 59//59
f 60//60 50//50 47//47 55//55
f 61//61 63//63 65//65 68//68
f 64//64 71//71 73//73 66//66
f 72//72 76//76 78//78 74//74
f 77//77 62//62 69//69 79//79
f 75//75 80//80 70//70 67//67
f 81//81 83//83 85//85 88//88
f 84//84 91//91 93//93 86//86
f 92//92 96//96 98//98 94//94
f 97//97 101//101 103//103 99//99
f 102//102 106//106 108//108 104//104
f 107//107 82//82 89//89 109//109
f 95//95 100//100 105//105 110//110
f 90//90 87//87 95//95 110//110
f 111//111 113//113 115//115 118//118
f 114//114 121//121 123//123 116//116
f 122//122 126//126 128//128 124//124
f 127//127 112//112 119//119 129//129
f 120//120 117//117 125//125 130//130
f 131//131 133//133 135//135 138//138
f 134//134 141//141 143//143 136//136
f 142//142 146//146 148//148 144//144
f 147//147 151//151 153//153 149//149
f 152//152 156//156 158//158 154//154
f 157//157 161//161 163//163 159//159
f 162//162 166//166 168//168 164//164
f 167//167 171//171 173//173 169//169
f 172//172 176//176 178//178 174//174
f 177//177 181//181 183//183 179//179
f 182//182 186//186 188//188 184//184
f 187//187 191//191 193//193 189//189
f 192//192 132//132 139//139 194//194
f 137//137 145//145 150//150 155//155
f 140//140 137//137 155//155 160//160
f 195//195 140//140 160//160 190//190
f 190//190 160//160 165//165 185//185
f 175//175 180//180 185//185 165//165
f 175//175 165//165 170//170
f 196//196 198//198 200//200 203//203
f 199//199 206//206 208//208 201//201
f 207//207 211//211 213//213 209//209
f 212//212 197//197 204//204 214//214
f 210//210 215//215 205//205 202//202
f 216//216 218//218 220//220 223//223
f 219//219 226//226 228//228 221//221
f 227//227 231//231 233//233 229//229
f 232//232 217//217 224//224 234//234
f 230//230 235//235 225//225 222//222
f 236//236 238//238 240//240 243//243
f 239//239 246//246 248//248 241//241
f 247//247 251//251 253//253 249//249
f 252//252 237//237 244//244 254//254
f 245//245 242//242 256//256 259//259
f 242//242 250//250 262//262 256//256
f 250//250 255//255 265//265 262//262
f 255//255 245//245 259//259 265//265
f 260//260 257//257 269//269 272//272
f 258//258 263//263 275//275 270//270
f 264//264 266//266 278//278 276//276
f 267//267 261//261 273//273 279//279
f 274//274 277//277 271//271 268//268
f 280//280 282//282 284//284 287//287
f 283//283 290//290 292//292 285//285
f 291//291 295//295 297//297 293//293
f 296//296 281//281 288//288 298//298
f 294//294 299//299 289//289 286//286
f 300//300 303//303 306//306 309//309
f 304//304 312//312 307//307
f 313//313 316//316 311//311 308//308
f 315//315 301//301 310//310
f 314//314 305//305 302//302 317//317
