# Alias OBJ Model File
# Exported from SketchUp, (c) 2000-2012 Trimble Navigation Limited
# File units = inches

mtllib office_1.mtl

g Mesh1 Group1 Model

usemtl FrontColor
v -185.218 0 -353.839
vt -63.1875 81.1875
vn 0 -1 -0
v -248.405 0 -272.652
vt 0 0
v -248.405 0 -353.839
vt 0 81.1875
f 1/1/1 2/2/1 3/3/1

v -185.218 0 -272.652
vt -63.1875 0
f 2/2/1 1/1/1 4/4/1

usemtl BackColor
vn -0 1 0
f 3/3/2 2/2/2 1/1/2

usemtl FrontColor
vn -1 0 -0
v -248.405 31.5 -313.245
vt -40.5938 31.5
vt -81.1875 0
f 2/2/3 5/5/3 3/6/3

v -248.405 31.5 -272.652
vt 0 31.5
f 5/5/3 2/2/3 6/7/3

usemtl BackColor
vn 1 -0 0
f 6/7/4 2/2/4 5/5/4

usemtl FrontColor
vn 0 0 1
v -185.218 31.5 -272.652
vt 63.1875 31.5
f 2/2/5 7/8/5 6/7/5

vt 63.1875 0
f 7/8/5 2/2/5 4/9/5

usemtl BackColor
vn -0 -0 -1
f 4/9/6 2/2/6 7/8/6

f 4/4/2 1/1/2 2/2/2

usemtl FrontColor
vt 81.1875 0
vn 1 0 -0
f 1/10/7 7/7/7 4/2/7

v -185.218 138.063 -272.652
vt 0 138.063
f 7/7/7 1/10/7 8/11/7

usemtl BackColor
vn -1 -0 0
f 4/2/8 7/7/8 1/10/8

f 8/11/8 1/10/8 7/7/8

usemtl FrontColor
v -185.218 138.063 -353.839
vt 81.1875 138.063
f 8/11/7 1/10/7 9/12/7

usemtl BackColor
f 9/12/8 1/10/8 8/11/8

usemtl FrontColor
vn 0 0 -1
v -248.405 138.063 -353.839
vt -63.1875 138.063
f 1/4/9 10/11/9 9/13/9

f 10/11/9 1/4/9 3/2/9

usemtl BackColor
vn -0 -0 1
f 3/2/10 1/4/10 10/11/10

f 9/13/10 10/11/10 1/4/10

usemtl FrontColor
vn 0 1 -0
vt 63.1875 81.1875
f 10/3/11 8/9/11 9/14/11

v -248.405 138.063 -313.245
vt 0 40.5938
f 8/9/11 10/3/11 11/15/11

usemtl BackColor
vn -0 -1 0
f 11/15/12 10/3/12 8/9/12

usemtl FrontColor
vt -81.1875 138.063
vt -40.5938 138.063
f 10/16/3 5/5/3 11/17/3

f 3/6/3 5/5/3 10/16/3

usemtl BackColor
f 3/6/4 5/5/4 2/2/4

f 10/16/4 5/5/4 3/6/4

f 11/17/4 5/5/4 10/16/4

usemtl FrontColor
vt -21.9411 31.5
vn -0.540505 0 0.841341
vt 53.1622 138.063
vt -21.9411 138.063
f 5/18/13 8/19/13 11/20/13

vt 53.1622 31.5
f 8/19/13 5/18/13 7/21/13

usemtl BackColor
vn 0.540505 -0 -0.841341
f 7/21/14 5/18/14 8/19/14

usemtl FrontColor
f 7/9/11 5/15/11 6/2/11

usemtl BackColor
f 6/2/12 5/15/12 7/9/12

f 6/7/6 7/8/6 2/2/6

f 11/20/14 8/19/14 5/18/14

f 9/14/12 8/9/12 10/3/12

