# Rhino

g object_1
v -14859.794921875 50 3781.4521484375
v -14923.6279296875 50 3774.21337890625
v -14841.3740234375 50 3619.011474609375
v -14905.20703125 50 3611.772705078125
v -14859.794921875 0 3781.4521484375
v -14923.6279296875 0 3774.21337890625
v -14841.3740234375 0 3619.011474609375
v -14905.20703125 0 3611.772705078125
v -14923.6279296875 0 3774.21337890625
v -14923.6279296875 50 3774.21337890625
v -14859.794921875 0 3781.4521484375
v -14859.794921875 50 3781.4521484375
v -14859.794921875 0 3781.4521484375
v -14859.794921875 50 3781.4521484375
v -14841.3740234375 0 3619.011474609375
v -14841.3740234375 50 3619.011474609375
v -14841.3740234375 0 3619.011474609375
v -14841.3740234375 50 3619.011474609375
v -14905.20703125 0 3611.772705078125
v -14905.20703125 50 3611.772705078125
v -14905.20703125 0 3611.772705078125
v -14905.20703125 50 3611.772705078125
v -14923.6279296875 0 3774.21337890625
v -14923.6279296875 50 3774.21337890625
vt 0.99853515625 0
vt 0.7188336253166199 0
vt 0.99853515625 0.7155060172080994
vt 0.7188336253166199 0.7155060172080994
vt 0 0
vt 0 0.2797015011310577
vt 0.7155060172080994 0
vt 0.7155060172080994 0.2797015011310577
vt 0 0.6389193534851074
vt 0 0.8577529788017273
vt 0.2797015011310577 0.6389193534851074
vt 0.2797015011310577 0.8577529788017273
vt 0.7173687815666199 0.2811663448810577
vt 0.5 0.2811663448810577
vt 0.7173687815666199 0.9952074885368347
vt 0.5 0.9952074885368347
vt 0 0.2811663448810577
vt 0 0.5
vt 0.2797015011310577 0.2811663448810577
vt 0.2797015011310577 0.5
vt 0.49853515625 0.2811663448810577
vt 0.2811663448810577 0.2811663448810577
vt 0.49853515625 0.9952074885368347
vt 0.2811663448810577 0.9952074885368347
vn 0 1 0
vn 0 1 0
vn 0 1 0
vn 0 1 0
vn 0 -1 0
vn 0 -1 0
vn 0 -1 0
vn 0 -1 0
vn -0.1126803383231163 0 0.9936313033103943
vn -0.1126803383231163 0 0.9936313033103943
vn -0.1126803383231163 0 0.9936313033103943
vn -0.1126803383231163 0 0.9936313033103943
vn 0.9936313033103943 0 0.1126803383231163
vn 0.9936313033103943 0 0.1126803383231163
vn 0.9936313033103943 0 0.1126803383231163
vn 0.9936313033103943 0 0.1126803383231163
vn 0.1126803383231163 0 -0.9936313033103943
vn 0.1126803383231163 0 -0.9936313033103943
vn 0.1126803383231163 0 -0.9936313033103943
vn 0.1126803383231163 0 -0.9936313033103943
vn -0.9936313033103943 0 -0.1126803383231163
vn -0.9936313033103943 0 -0.1126803383231163
vn -0.9936313033103943 0 -0.1126803383231163
vn -0.9936313033103943 0 -0.1126803383231163
f 2/2/2 1/1/1 3/3/3 4/4/4
f 6/6/6 8/8/8 7/7/7 5/5/5
f 10/10/10 9/9/9 11/11/11 12/12/12
f 14/14/14 13/13/13 15/15/15 16/16/16
f 18/18/18 17/17/17 19/19/19 20/20/20
f 22/22/22 21/21/21 23/23/23 24/24/24
