# Rhino

g object_1
v -1578.125 -6849.75 0
v -1643 -6876 0
v -1593 -6825.75 0
v -1569.3125 -6838.25 0
v -1445.125 -6905.75 0
v -1319.9375 -7018.75 0
v -1416 -6837 0
v -1269.6875 -6899 0
vn 0 0 -1
vn 0 0 -1
vn 0 0 -1
vn 0 0 -1
vn 0 0 -1
vn 0 0 -1
vn 0 0 -1
vn 0 0 -1
f 1//1 2//2 3//3 4//4
f 1//1 5//5 6//6 2//2
f 5//5 7//7 8//8 6//6
g object_2
v -1578.125 -6849.75 64
v -1569.3125 -6838.25 64
v -1593 -6825.75 64
v -1643 -6876 64
v -1319.9375 -7018.75 64
v -1445.125 -6905.75 64
v -1269.6875 -6899 64
v -1416 -6837 64
vn 0 0 1
vn 0 0 1
vn 0 0 1
vn 0 0 1
vn 0 0 1
vn 0 0 1
vn 0 0 1
vn 0 0 1
f 9//9 10//10 11//11 12//12
f 9//9 12//12 13//13 14//14
f 14//14 13//13 15//15 16//16
g object_3
v -1319.9375 -7018.75 0
v -1269.6875 -6899 0
v -1269.6875 -6899 64
v -1319.9375 -7018.75 64
vn 0.9221184253692627 -0.3869077265262604 0
vn 0.9221184253692627 -0.3869077265262604 0
vn 0.9221184253692627 -0.3869077265262604 0
vn 0.9221184253692627 -0.3869077265262604 0
f 17//17 18//18 19//19 20//20
g object_4
v -1643 -6876 0
v -1319.9375 -7018.75 0
v -1319.9375 -7018.75 64
v -1643 -6876 64
vn -0.4041891396045685 -0.9146754145622253 0
vn -0.4041891396045685 -0.9146754145622253 0
vn -0.4041891396045685 -0.9146754145622253 0
vn -0.4041891396045685 -0.9146754145622253 0
f 21//21 22//22 23//23 24//24
g object_5
v -1593 -6825.75 0
v -1643 -6876 0
v -1643 -6876 64
v -1593 -6825.75 64
vn -0.708904504776001 0.7053045034408569 0
vn -0.708904504776001 0.7053045034408569 0
vn -0.708904504776001 0.7053045034408569 0
vn -0.708904504776001 0.7053045034408569 0
f 25//25 26//26 27//27 28//28
g object_6
v -1569.3125 -6838.25 0
v -1593 -6825.75 0
v -1593 -6825.75 64
v -1569.3125 -6838.25 64
vn 0.4667064547538757 0.8844122886657715 0
vn 0.4667064547538757 0.8844122886657715 0
vn 0.4667064547538757 0.8844122886657715 0
vn 0.4667064547538757 0.8844122886657715 0
f 29//29 30//30 31//31 32//32
g object_7
v -1578.125 -6849.75 0
v -1569.3125 -6838.25 0
v -1569.3125 -6838.25 64
v -1578.125 -6849.75 64
vn 0.7937045097351074 -0.6083034873008728 0
vn 0.7937045097351074 -0.6083034873008728 0
vn 0.7937045097351074 -0.6083034873008728 0
vn 0.7937045097351074 -0.6083034873008728 0
f 33//33 34//34 35//35 36//36
g object_8
v -1445.125 -6905.75 0
v -1578.125 -6849.75 0
v -1578.125 -6849.75 64
v -1445.125 -6905.75 64
vn 0.3881061673164368 0.9216146469116211 0
vn 0.3881061673164368 0.9216146469116211 0
vn 0.3881061673164368 0.9216146469116211 0
vn 0.3881061673164368 0.9216146469116211 0
f 37//37 38//38 39//39 40//40
g object_9
v -1416 -6837 0
v -1445.125 -6905.75 0
v -1445.125 -6905.75 64
v -1416 -6837 64
vn -0.9207766652107239 0.390090137720108 0
vn -0.9207766652107239 0.390090137720108 0
vn -0.9207766652107239 0.390090137720108 0
vn -0.9207766652107239 0.390090137720108 0
f 41//41 42//42 43//43 44//44
g object_10
v -1269.6875 -6899 0
v -1416 -6837 0
v -1416 -6837 64
v -1269.6875 -6899 64
vn 0.3902108073234558 0.9207255244255066 0
vn 0.3902108073234558 0.9207255244255066 0
vn 0.3902108073234558 0.9207255244255066 0
vn 0.3902108073234558 0.9207255244255066 0
f 45//45 46//46 47//47 48//48
g object_11
v -1532.1875 -6853.75 0
v -1569.0625 -6838.25 0
v -1562.75 -6794 0
v -1503.875 -6819.75 0
v -1592.8125 -6826 0
vn 0 0 -1
vn 0 0 -1
vn 0 0 -1
vn 0 0 -1
vn 0 0 -1
f 49//49 50//50 51//51 52//52
f 50//50 53//53 51//51
g object_12
v -1532.1875 -6853.75 55
v -1503.875 -6819.75 55
v -1562.75 -6794 55
v -1569.0625 -6838.25 55
v -1592.8125 -6826 55
vn 0 0 1
vn 0 0 1
vn 0 0 1
vn 0 0 1
vn 0 0 1
f 54//54 55//55 56//56 57//57
f 57//57 56//56 58//58
g object_13
v -1569.0625 -6838.25 0
v -1532.1875 -6853.75 0
v -1532.1875 -6853.75 55
v -1569.0625 -6838.25 55
vn -0.3874891698360443 -0.9218742251396179 0
vn -0.3874891698360443 -0.9218742251396179 0
vn -0.3874891698360443 -0.9218742251396179 0
vn -0.3874891698360443 -0.9218742251396179 0
f 59//59 60//60 61//61 62//62
g object_14
v -1592.8125 -6826 0
v -1569.0625 -6838.25 0
v -1569.0625 -6838.25 55
v -1592.8125 -6826 55
vn -0.4584187567234039 -0.8887363076210022 0
vn -0.4584187567234039 -0.8887363076210022 0
vn -0.4584187567234039 -0.8887363076210022 0
vn -0.4584187567234039 -0.8887363076210022 0
f 63//63 64//64 65//65 66//66
g object_15
v -1562.75 -6794 0
v -1592.8125 -6826 0
v -1592.8125 -6826 55
v -1562.75 -6794 55
vn -0.7288132905960083 0.6847124695777893 0
vn -0.7288132905960083 0.6847124695777893 0
vn -0.7288132905960083 0.6847124695777893 0
vn -0.7288132905960083 0.6847124695777893 0
f 67//67 68//68 69//69 70//70
g object_16
v -1503.875 -6819.75 0
v -1562.75 -6794 0
v -1562.75 -6794 55
v -1503.875 -6819.75 55
v -1532.1875 -6853.75 0
v -1532.1875 -6853.75 55
vn 0.9731911420822144 0.2299979031085968 0
vn 0.4007034301757813 0.9162077903747559 0
vn 0.4007034301757813 0.9162077903747559 0
vn 0.9731911420822144 0.2299979031085968 0
vn 0.7684752941131592 -0.6398794651031494 0
vn 0.7684752941131592 -0.6398794651031494 0
f 71//71 72//72 73//73 74//74
f 75//75 71//71 74//74 76//76
g object_17
v -1503.625 -6820 0
v -1562.4375 -6794.25 0
v -1521 -6749.5 0
v -1461.0625 -6775.75 0
vn 0 0 -1
vn 0 0 -1
vn 0 0 -1
vn 0 0 -1
f 77//77 78//78 79//79 80//80
g object_18
v -1503.625 -6820 55
v -1461.0625 -6775.75 55
v -1521 -6749.5 55
v -1562.4375 -6794.25 55
vn 0 0 1
vn 0 0 1
vn 0 0 1
vn 0 0 1
f 81//81 82//82 83//83 84//84
g object_19
v -1503.625 -6820 0
v -1461.0625 -6775.75 0
v -1461.0625 -6775.75 55
v -1503.625 -6820 55
vn 0.7207235097885132 -0.6932225823402405 0
vn 0.7207235097885132 -0.6932225823402405 0
vn 0.7207235097885132 -0.6932225823402405 0
vn 0.7207235097885132 -0.6932225823402405 0
f 85//85 86//86 87//87 88//88
g object_20
v -1562.4375 -6794.25 0
v -1503.625 -6820 0
v -1503.625 -6820 55
v -1562.4375 -6794.25 55
vn -0.4011125862598419 -0.9160287380218506 0
vn -0.4011125862598419 -0.9160287380218506 0
vn -0.4011125862598419 -0.9160287380218506 0
vn -0.4011125862598419 -0.9160287380218506 0
f 89//89 90//90 91//91 92//92
g object_21
v -1461.0625 -6775.75 0
v -1521 -6749.5 0
v -1521 -6749.5 55
v -1461.0625 -6775.75 55
vn 0.4011965095996857 0.915992021560669 0
vn 0.4011965095996857 0.915992021560669 0
vn 0.4011965095996857 0.915992021560669 0
vn 0.4011965095996857 0.915992021560669 0
f 93//93 94//94 95//95 96//96
g object_22
v -1500.625 -6909.75 64
v -1492.75 -6891 64
v -1481.75 -6895.75 64
v -1489.625 -6914.5 64
vn 0 0 -1
vn 0 0 -1
vn 0 0 -1
vn 0 0 -1
f 97//97 98//98 99//99 100//100
g object_23
v -1500.625 -6909.75 79
v -1489.625 -6914.5 79
v -1481.75 -6895.75 79
v -1492.75 -6891 79
vn 0 0 1
vn 0 0 1
vn 0 0 1
vn 0 0 1
f 101//101 102//102 103//103 104//104
g object_24
v -1489.625 -6914.5 64
v -1481.75 -6895.75 64
v -1481.75 -6895.75 79
v -1489.625 -6914.5 79
vn 0.9224989414215088 -0.3859995603561401 0
vn 0.9224989414215088 -0.3859995603561401 0
vn 0.9224989414215088 -0.3859995603561401 0
vn 0.9224989414215088 -0.3859995603561401 0
f 105//105 106//106 107//107 108//108
g object_25
v -1500.625 -6909.75 64
v -1489.625 -6914.5 64
v -1489.625 -6914.5 79
v -1500.625 -6909.75 79
vn -0.3859995603561401 -0.9224989414215088 0
vn -0.3859995603561401 -0.9224989414215088 0
vn -0.3859995603561401 -0.9224989414215088 0
vn -0.3859995603561401 -0.9224989414215088 0
f 109//109 110//110 111//111 112//112
g object_26
v -1492.75 -6891 64
v -1500.625 -6909.75 64
v -1500.625 -6909.75 79
v -1492.75 -6891 79
vn -0.9224989414215088 0.3859995603561401 0
vn -0.9224989414215088 0.3859995603561401 0
vn -0.9224989414215088 0.3859995603561401 0
vn -0.9224989414215088 0.3859995603561401 0
f 113//113 114//114 115//115 116//116
g object_27
v -1481.75 -6895.75 64
v -1492.75 -6891 64
v -1492.75 -6891 79
v -1481.75 -6895.75 79
vn 0.3859995603561401 0.9224989414215088 0
vn 0.3859995603561401 0.9224989414215088 0
vn 0.3859995603561401 0.9224989414215088 0
vn 0.3859995603561401 0.9224989414215088 0
f 117//117 118//118 119//119 120//120
g object_28
v -1487 -6880.25 0
v -1487.0625 -6879.25 0
v -1488.25 -6879.5 101
v -1488.25 -6879.5 101
v -1488.1875 -6880.25 101
v -1488.1875 -6880.25 101
v -1487.4375 -6878.25 0
v -1488.5 -6878.75 101
v -1488.5 -6878.75 101
v -1487.9375 -6877.5 0
v -1488.875 -6878.25 101
v -1488.875 -6878.25 101
v -1488.625 -6876.75 0
v -1489.375 -6877.75 101
v -1489.375 -6877.75 101
v -1489.5 -6876.25 0
v -1490 -6877.25 101
v -1490 -6877.25 101
v -1490.4375 -6876 0
v -1490.6875 -6877 101
v -1490.6875 -6877 101
v -1491.4375 -6875.75 0
v -1491.4375 -6877 101
v -1491.4375 -6877 101
v -1492.4375 -6876 0
v -1492.1875 -6877 101
v -1492.1875 -6877 101
v -1493.375 -6876.25 0
v -1492.875 -6877.25 101
v -1492.875 -6877.25 101
v -1494.25 -6876.75 0
v -1493.5 -6877.75 101
v -1493.5 -6877.75 101
v -1494.9375 -6877.5 0
v -1494 -6878.25 101
v -1494 -6878.25 101
v -1495.4375 -6878.25 0
v -1494.375 -6878.75 101
v -1494.375 -6878.75 101
v -1495.8125 -6879.25 0
v -1494.625 -6879.5 101
v -1494.625 -6879.5 101
v -1495.875 -6880.25 0
v -1494.6875 -6880.25 101
v -1494.6875 -6880.25 101
v -1495.8125 -6881.25 0
v -1494.625 -6881 101
v -1494.625 -6881 101
v -1495.4375 -6882.25 0
v -1494.375 -6881.75 101
v -1494.375 -6881.75 101
v -1494.9375 -6883 0
v -1494 -6882.25 101
v -1494 -6882.25 101
v -1494.25 -6883.75 0
v -1493.5 -6882.75 101
v -1493.5 -6882.75 101
v -1493.375 -6884.25 0
v -1492.875 -6883.25 101
v -1492.875 -6883.25 101
v -1492.4375 -6884.5 0
v -1492.1875 -6883.5 101
v -1492.1875 -6883.5 101
v -1491.4375 -6884.75 0
v -1491.4375 -6883.5 101
v -1491.4375 -6883.5 101
v -1490.4375 -6884.5 0
v -1490.6875 -6883.5 101
v -1490.6875 -6883.5 101
v -1489.5 -6884.25 0
v -1490 -6883.25 101
v -1490 -6883.25 101
v -1488.625 -6883.75 0
v -1489.375 -6882.75 101
v -1489.375 -6882.75 101
v -1487.9375 -6883 0
v -1488.875 -6882.25 101
v -1488.875 -6882.25 101
v -1487.4375 -6882.25 0
v -1488.5 -6881.75 101
v -1488.5 -6881.75 101
v -1487.0625 -6881.25 0
v -1488.25 -6881 101
v -1488.25 -6881 101
v -1489.25 -6879.75 101
v -1489.25 -6879.75 101
v -1489.1875 -6880.25 101
v -1489.1875 -6880.25 101
v -1489.4375 -6879.25 101
v -1489.4375 -6879.25 101
v -1489.6875 -6878.75 101
v -1489.6875 -6878.75 101
v -1490 -6878.5 101
v -1490 -6878.5 101
v -1490.4375 -6878.25 101
v -1490.4375 -6878.25 101
v -1490.9375 -6878 101
v -1490.9375 -6878 101
v -1491.4375 -6878 101
v -1491.4375 -6878 101
v -1491.9375 -6878 101
v -1491.9375 -6878 101
v -1492.4375 -6878.25 101
v -1492.4375 -6878.25 101
v -1492.875 -6878.5 101
v -1492.875 -6878.5 101
v -1493.1875 -6878.75 101
v -1493.1875 -6878.75 101
v -1493.4375 -6879.25 101
v -1493.4375 -6879.25 101
v -1493.625 -6879.75 101
v -1493.625 -6879.75 101
v -1493.6875 -6880.25 101
v -1493.6875 -6880.25 101
v -1493.625 -6880.75 101
v -1493.625 -6880.75 101
v -1493.4375 -6881.25 101
v -1493.4375 -6881.25 101
v -1493.1875 -6881.75 101
v -1493.1875 -6881.75 101
v -1492.875 -6882 101
v -1492.875 -6882 101
v -1492.4375 -6882.25 101
v -1492.4375 -6882.25 101
v -1491.9375 -6882.5 101
v -1491.9375 -6882.5 101
v -1491.4375 -6882.5 101
v -1491.4375 -6882.5 101
v -1490.9375 -6882.5 101
v -1490.9375 -6882.5 101
v -1490.4375 -6882.25 101
v -1490.4375 -6882.25 101
v -1490 -6882 101
v -1490 -6882 101
v -1489.6875 -6881.75 101
v -1489.6875 -6881.75 101
v -1489.4375 -6881.25 101
v -1489.4375 -6881.25 101
v -1489.25 -6880.75 101
v -1489.25 -6880.75 101
v -1489.25 -6879.75 98
v -1489.25 -6879.75 98
v -1489.1875 -6880.25 98
v -1489.1875 -6880.25 98
v -1489.4375 -6879.25 98
v -1489.4375 -6879.25 98
v -1489.6875 -6878.75 98
v -1489.6875 -6878.75 98
v -1490 -6878.5 98
v -1490 -6878.5 98
v -1490.4375 -6878.25 98
v -1490.4375 -6878.25 98
v -1490.9375 -6878 98
v -1490.9375 -6878 98
v -1491.4375 -6878 98
v -1491.4375 -6878 98
v -1491.9375 -6878 98
v -1491.9375 -6878 98
v -1492.4375 -6878.25 98
v -1492.4375 -6878.25 98
v -1492.875 -6878.5 98
v -1492.875 -6878.5 98
v -1493.1875 -6878.75 98
v -1493.1875 -6878.75 98
v -1493.4375 -6879.25 98
v -1493.4375 -6879.25 98
v -1493.625 -6879.75 98
v -1493.625 -6879.75 98
v -1493.6875 -6880.25 98
v -1493.6875 -6880.25 98
v -1493.625 -6880.75 98
v -1493.625 -6880.75 98
v -1493.4375 -6881.25 98
v -1493.4375 -6881.25 98
v -1493.1875 -6881.75 98
v -1493.1875 -6881.75 98
v -1492.875 -6882 98
v -1492.875 -6882 98
v -1492.4375 -6882.25 98
v -1492.4375 -6882.25 98
v -1491.9375 -6882.5 98
v -1491.9375 -6882.5 98
v -1491.4375 -6882.5 98
v -1491.4375 -6882.5 98
v -1490.9375 -6882.5 98
v -1490.9375 -6882.5 98
v -1490.4375 -6882.25 98
v -1490.4375 -6882.25 98
v -1490 -6882 98
v -1490 -6882 98
v -1489.6875 -6881.75 98
v -1489.6875 -6881.75 98
v -1489.4375 -6881.25 98
v -1489.4375 -6881.25 98
v -1489.25 -6880.75 98
v -1489.25 -6880.75 98
vn 0.9999279975891113 0 0.01200033631175757
vn 0.9737755060195923 0.227194294333458 0.01199969835579395
vn 0.9737755060195923 0.227194294333458 0.01199969835579395
vn 0 0 1
vn 0.9999279975891113 0 0.01200033631175757
vn 0 0 1
vn 0.8981696963310242 0.4394851922988892 0.01199959497898817
vn 0.8981696963310242 0.4394851922988892 0.01199959497898817
vn 0 0 1
vn 0.7800314426422119 0.6256252527236939 0.01200048439204693
vn 0.7800314426422119 0.6256252527236939 0.01200048439204693
vn 0 0 1
vn 0.6256252527236939 0.7800314426422119 0.01200048439204693
vn 0.6256252527236939 0.7800314426422119 0.01200048439204693
vn 0 0 1
vn 0.4394851922988892 0.8981696963310242 0.01199959497898817
vn 0.4394851922988892 0.8981696963310242 0.01199959497898817
vn 0 0 1
vn 0.227194294333458 0.9737755060195923 0.01199969835579395
vn 0.227194294333458 0.9737755060195923 0.01199969835579395
vn 0 0 1
vn 0 0.9999279975891113 0.01200033631175757
vn 0 0.9999279975891113 0.01200033631175757
vn 0 0 1
vn -0.227194294333458 0.9737755060195923 0.01199969835579395
vn -0.227194294333458 0.9737755060195923 0.01199969835579395
vn 0 0 1
vn -0.4394851922988892 0.8981696963310242 0.01199959497898817
vn -0.4394851922988892 0.8981696963310242 0.01199959497898817
vn 0 0 1
vn -0.6256252527236939 0.7800314426422119 0.01200048439204693
vn -0.6256252527236939 0.7800314426422119 0.01200048439204693
vn 0 0 1
vn -0.7800314426422119 0.6256252527236939 0.01200048439204693
vn -0.7800314426422119 0.6256252527236939 0.01200048439204693
vn 0 0 1
vn -0.8981696963310242 0.4394851922988892 0.01199959497898817
vn -0.8981696963310242 0.4394851922988892 0.01199959497898817
vn 0 0 1
vn -0.9737755060195923 0.227194294333458 0.01199969835579395
vn -0.9737755060195923 0.227194294333458 0.01199969835579395
vn 0 0 1
vn -0.9999279975891113 0 0.01200033631175757
vn -0.9999279975891113 0 0.01200033631175757
vn 0 0 1
vn -0.9737755060195923 -0.227194294333458 0.01199969835579395
vn -0.9737755060195923 -0.227194294333458 0.01199969835579395
vn 0 0 1
vn -0.8981696963310242 -0.4394851922988892 0.01199959497898817
vn -0.8981696963310242 -0.4394851922988892 0.01199959497898817
vn 0 0 1
vn -0.7800314426422119 -0.6256252527236939 0.01200048439204693
vn -0.7800314426422119 -0.6256252527236939 0.01200048439204693
vn 0 0 1
vn -0.6256252527236939 -0.7800314426422119 0.01200048439204693
vn -0.6256252527236939 -0.7800314426422119 0.01200048439204693
vn 0 0 1
vn -0.4394851922988892 -0.8981696963310242 0.01199959497898817
vn -0.4394851922988892 -0.8981696963310242 0.01199959497898817
vn 0 0 1
vn -0.227194294333458 -0.9737755060195923 0.01199969835579395
vn -0.227194294333458 -0.9737755060195923 0.01199969835579395
vn 0 0 1
vn 0 -0.9999279975891113 0.01200033631175757
vn 0 -0.9999279975891113 0.01200033631175757
vn 0 0 1
vn 0.227194294333458 -0.9737755060195923 0.01199969835579395
vn 0.227194294333458 -0.9737755060195923 0.01199969835579395
vn 0 0 1
vn 0.4394851922988892 -0.8981696963310242 0.01199959497898817
vn 0.4394851922988892 -0.8981696963310242 0.01199959497898817
vn 0 0 1
vn 0.6256252527236939 -0.7800314426422119 0.01200048439204693
vn 0.6256252527236939 -0.7800314426422119 0.01200048439204693
vn 0 0 1
vn 0.7800314426422119 -0.6256252527236939 0.01200048439204693
vn 0.7800314426422119 -0.6256252527236939 0.01200048439204693
vn 0 0 1
vn 0.8981696963310242 -0.4394851922988892 0.01199959497898817
vn 0.8981696963310242 -0.4394851922988892 0.01199959497898817
vn 0 0 1
vn 0.9737755060195923 -0.227194294333458 0.01199969835579395
vn 0.9737755060195923 -0.227194294333458 0.01199969835579395
vn 0 0 1
vn 0 0 1
vn -0.9738456606864929 -0.2272106409072876 0
vn 0 0 1
vn -1 0 0
vn 0 0 1
vn -0.8982343673706055 -0.4395168125629425 0
vn 0 0 1
vn -0.7800779342651367 -0.6256823539733887 0
vn 0 0 1
vn -0.6256823539733887 -0.7800779342651367 0
vn 0 0 1
vn -0.4395168125629425 -0.8982343673706055 0
vn 0 0 1
vn -0.2272106409072876 -0.9738456606864929 0
vn 0 0 1
vn 0 -1 0
vn 0 0 1
vn 0.2272106409072876 -0.9738456606864929 0
vn 0 0 1
vn 0.4395168125629425 -0.8982343673706055 0
vn 0 0 1
vn 0.6256823539733887 -0.7800779342651367 0
vn 0 0 1
vn 0.7800779342651367 -0.6256823539733887 0
vn 0 0 1
vn 0.8982343673706055 -0.4395168125629425 0
vn 0 0 1
vn 0.9738456606864929 -0.2272106409072876 0
vn 0 0 1
vn 1 0 0
vn 0 0 1
vn 0.9738456606864929 0.2272106409072876 0
vn 0 0 1
vn 0.8982343673706055 0.4395168125629425 0
vn 0 0 1
vn 0.7800779342651367 0.6256823539733887 0
vn 0 0 1
vn 0.6256823539733887 0.7800779342651367 0
vn 0 0 1
vn 0.4395168125629425 0.8982343673706055 0
vn 0 0 1
vn 0.2272106409072876 0.9738456606864929 0
vn 0 0 1
vn 0 1 0
vn 0 0 1
vn -0.2272106409072876 0.9738456606864929 0
vn 0 0 1
vn -0.4395168125629425 0.8982343673706055 0
vn 0 0 1
vn -0.6256823539733887 0.7800779342651367 0
vn 0 0 1
vn -0.7800779342651367 0.6256823539733887 0
vn 0 0 1
vn -0.8982343673706055 0.4395168125629425 0
vn 0 0 1
vn -0.9738456606864929 0.2272106409072876 0
vn 0 0 1
vn -0.9738456606864929 -0.2272106409072876 0
vn 0 0 1
vn -1 0 0
vn 0 0 1
vn -0.8982343673706055 -0.4395168125629425 0
vn 0 0 1
vn -0.7800779342651367 -0.6256823539733887 0
vn 0 0 1
vn -0.6256823539733887 -0.7800779342651367 0
vn 0 0 1
vn -0.4395168125629425 -0.8982343673706055 0
vn 0 0 1
vn -0.2272106409072876 -0.9738456606864929 0
vn 0 0 1
vn 0 -1 0
vn 0 0 1
vn 0.2272106409072876 -0.9738456606864929 0
vn 0 0 1
vn 0.4395168125629425 -0.8982343673706055 0
vn 0 0 1
vn 0.6256823539733887 -0.7800779342651367 0
vn 0 0 1
vn 0.7800779342651367 -0.6256823539733887 0
vn 0 0 1
vn 0.8982343673706055 -0.4395168125629425 0
vn 0 0 1
vn 0.9738456606864929 -0.2272106409072876 0
vn 0 0 1
vn 1 0 0
vn 0 0 1
vn 0.9738456606864929 0.2272106409072876 0
vn 0 0 1
vn 0.8982343673706055 0.4395168125629425 0
vn 0 0 1
vn 0.7800779342651367 0.6256823539733887 0
vn 0 0 1
vn 0.6256823539733887 0.7800779342651367 0
vn 0 0 1
vn 0.4395168125629425 0.8982343673706055 0
vn 0 0 1
vn 0.2272106409072876 0.9738456606864929 0
vn 0 0 1
vn 0 1 0
vn 0 0 1
vn -0.2272106409072876 0.9738456606864929 0
vn 0 0 1
vn -0.4395168125629425 0.8982343673706055 0
vn 0 0 1
vn -0.6256823539733887 0.7800779342651367 0
vn 0 0 1
vn -0.7800779342651367 0.6256823539733887 0
vn 0 0 1
vn -0.8982343673706055 0.4395168125629425 0
vn 0 0 1
vn -0.9738456606864929 0.2272106409072876 0
f 121//121 122//122 123//123 125//125
f 122//122 127//127 128//128 123//123
f 127//127 130//130 131//131 128//128
f 130//130 133//133 134//134 131//131
f 133//133 136//136 137//137 134//134
f 136//136 139//139 140//140 137//137
f 139//139 142//142 143//143 140//140
f 142//142 145//145 146//146 143//143
f 145//145 148//148 149//149 146//146
f 148//148 151//151 152//152 149//149
f 151//151 154//154 155//155 152//152
f 154//154 157//157 158//158 155//155
f 157//157 160//160 161//161 158//158
f 160//160 163//163 164//164 161//161
f 163//163 166//166 167//167 164//164
f 166//166 169//169 170//170 167//167
f 169//169 172//172 173//173 170//170
f 172//172 175//175 176//176 173//173
f 175//175 178//178 179//179 176//176
f 178//178 181//181 182//182 179//179
f 181//181 184//184 185//185 182//182
f 184//184 187//187 188//188 185//185
f 187//187 190//190 191//191 188//188
f 190//190 193//193 194//194 191//191
f 193//193 196//196 197//197 194//194
f 196//196 199//199 200//200 197//197
f 199//199 202//202 203//203 200//200
f 202//202 121//121 125//125 203//203
f 126//126 124//124 205//205 207//207
f 124//124 129//129 209//209 205//205
f 129//129 132//132 211//211 209//209
f 132//132 135//135 213//213 211//211
f 135//135 138//138 215//215 213//213
f 138//138 141//141 217//217 215//215
f 141//141 144//144 219//219 217//217
f 144//144 147//147 221//221 219//219
f 147//147 150//150 223//223 221//221
f 150//150 153//153 225//225 223//223
f 153//153 156//156 227//227 225//225
f 156//156 159//159 229//229 227//227
f 159//159 162//162 231//231 229//229
f 162//162 165//165 233//233 231//231
f 165//165 168//168 235//235 233//233
f 168//168 171//171 237//237 235//235
f 171//171 174//174 239//239 237//237
f 174//174 177//177 241//241 239//239
f 177//177 180//180 243//243 241//241
f 180//180 183//183 245//245 243//243
f 183//183 186//186 247//247 245//245
f 186//186 189//189 249//249 247//247
f 189//189 192//192 251//251 249//249
f 192//192 195//195 253//253 251//251
f 195//195 198//198 255//255 253//253
f 198//198 201//201 257//257 255//255
f 201//201 204//204 259//259 257//257
f 204//204 126//126 207//207 259//259
f 208//208 206//206 262//262 264//264
f 206//206 210//210 266//266 262//262
f 210//210 212//212 268//268 266//266
f 212//212 214//214 270//270 268//268
f 214//214 216//216 272//272 270//270
f 216//216 218//218 274//274 272//272
f 218//218 220//220 276//276 274//274
f 220//220 222//222 278//278 276//276
f 222//222 224//224 280//280 278//278
f 224//224 226//226 282//282 280//280
f 226//226 228//228 284//284 282//282
f 228//228 230//230 286//286 284//284
f 230//230 232//232 288//288 286//286
f 232//232 234//234 290//290 288//288
f 234//234 236//236 292//292 290//290
f 236//236 238//238 294//294 292//292
f 238//238 240//240 296//296 294//294
f 240//240 242//242 298//298 296//296
f 242//242 244//244 300//300 298//298
f 244//244 246//246 302//302 300//300
f 246//246 248//248 304//304 302//302
f 248//248 250//250 306//306 304//304
f 250//250 252//252 308//308 306//306
f 252//252 254//254 310//310 308//308
f 254//254 256//256 312//312 310//310
f 256//256 258//258 314//314 312//312
f 258//258 260//260 316//316 314//314
f 260//260 208//208 264//264 316//316
f 301//301 303//303 305//305 299//299
f 297//297 299//299 305//305 307//307
f 297//297 307//307 309//309 311//311
f 295//295 297//297 311//311 313//313
f 295//295 313//313 315//315 263//263
f 295//295 263//263 261//261 265//265
f 295//295 265//265 267//267 269//269
f 295//295 269//269 271//271 273//273
f 295//295 273//273 275//275 277//277
f 295//295 277//277 279//279 281//281
f 295//295 281//281 283//283 285//285
f 295//295 285//285 287//287 289//289
f 295//295 289//289 291//291 293//293
