# Rhino

g object_1
v 160.3125 2009.25 61
v 92.8125 1960 61
v 148.75 1893.75 61
v 212 1946.5 61
vn 0 0 1
vn 0 0 1
vn 0 0 1
vn 0 0 1
f 1//1 2//2 3//3 4//4
g object_2
v 148.75 1893.75 64
v 212 1946.5 64
v 212 1946.5 61
v 148.75 1893.75 61
vn -0.6404794454574585 0.7679753303527832 0
vn -0.6404794454574585 0.7679753303527832 0
vn -0.6404794454574585 0.7679753303527832 0
vn -0.6404794454574585 0.7679753303527832 0
f 5//5 6//6 7//7 8//8
g object_3
v 92.8125 1960 64
v 148.75 1893.75 64
v 148.75 1893.75 61
v 92.8125 1960 61
vn 0.7650148868560791 0.6440125703811646 0
vn 0.7650148868560791 0.6440125703811646 0
vn 0.7650148868560791 0.6440125703811646 0
vn 0.7650148868560791 0.6440125703811646 0
f 9//9 10//10 11//11 12//12
g object_4
v 160.3125 2009.25 64
v 92.8125 1960 64
v 92.8125 1960 61
v 160.3125 2009.25 61
vn 0.5879814028739929 -0.8088744282722473 0
vn 0.5879814028739929 -0.8088744282722473 0
vn 0.5879814028739929 -0.8088744282722473 0
vn 0.5879814028739929 -0.8088744282722473 0
f 13//13 14//14 15//15 16//16
g object_5
v 212 1946.5 64
v 160.3125 2009.25 64
v 160.3125 2009.25 61
v 212 1946.5 61
vn -0.7721495628356934 -0.6354408264160156 0
vn -0.7721495628356934 -0.6354408264160156 0
vn -0.7721495628356934 -0.6354408264160156 0
vn -0.7721495628356934 -0.6354408264160156 0
f 17//17 18//18 19//19 20//20
g object_6
v 213.375 1946.25 64
v 160.5 2010.5 64
v 160.3125 2009.25 64
v 212 1946.5 64
v 91.375 1960.25 64
v 92.8125 1960 64
v 148.625 1892.25 64
v 148.75 1893.75 64
v 213.375 1946.25 64
v 212 1946.5 64
vn 0 0 1
vn 0 0 1
vn 0 0 1
vn 0 0 1
vn 0 0 1
vn 0 0 1
vn 0 0 1
vn 0 0 1
vn 0 0 1
vn 0 0 1
f 21//21 22//22 23//23 24//24
f 22//22 25//25 26//26 23//23
f 25//25 27//27 28//28 26//26
f 27//27 29//29 30//30 28//28
g object_7
v 148.625 1892.25 0
v 213.375 1946.25 0
v 213.375 1946.25 64
v 148.625 1892.25 64
vn 0.6404794454574585 -0.7679753303527832 0
vn 0.6404794454574585 -0.7679753303527832 0
vn 0.6404794454574585 -0.7679753303527832 0
vn 0.6404794454574585 -0.7679753303527832 0
f 31//31 32//32 33//33 34//34
g object_8
v 91.375 1960.25 0
v 148.625 1892.25 0
v 148.625 1892.25 64
v 91.375 1960.25 64
vn -0.7650148868560791 -0.6440125703811646 0
vn -0.7650148868560791 -0.6440125703811646 0
vn -0.7650148868560791 -0.6440125703811646 0
vn -0.7650148868560791 -0.6440125703811646 0
f 35//35 36//36 37//37 38//38
g object_9
v 160.5 2010.5 0
v 91.375 1960.25 0
v 91.375 1960.25 64
v 160.5 2010.5 64
vn -0.5879814028739929 0.8088744282722473 0
vn -0.5879814028739929 0.8088744282722473 0
vn -0.5879814028739929 0.8088744282722473 0
vn -0.5879814028739929 0.8088744282722473 0
f 39//39 40//40 41//41 42//42
g object_10
v 213.375 1946.25 0
v 160.5 2010.5 0
v 160.5 2010.5 64
v 213.375 1946.25 64
vn 0.7721495628356934 0.6354408264160156 0
vn 0.7721495628356934 0.6354408264160156 0
vn 0.7721495628356934 0.6354408264160156 0
vn 0.7721495628356934 0.6354408264160156 0
f 43//43 44//44 45//45 46//46
