# Rhino

g object_1
v -2201.9775390625 0 9465.80859375
v -2201.9775390625 30 9465.80859375
v -2101.9775390625 0 9465.80859375
v -2101.9775390625 30 9465.80859375
v -2101.9775390625 0 9465.80859375
v -2101.9775390625 30 9465.80859375
v -2101.9775390625 0 9365.80859375
v -2101.9775390625 30 9365.80859375
v -2101.9775390625 0 9365.80859375
v -2101.9775390625 30 9365.80859375
v -2201.9775390625 0 9365.80859375
v -2201.9775390625 30 9365.80859375
v -2201.9775390625 0 9365.80859375
v -2201.9775390625 30 9365.80859375
v -2201.9775390625 0 9465.80859375
v -2201.9775390625 30 9465.80859375
v -2201.9775390625 0 9465.80859375
v -2101.9775390625 0 9465.80859375
v -2101.9775390625 0 9365.80859375
v -2201.9775390625 0 9365.80859375
v -2201.9775390625 30 9465.80859375
v -2101.9775390625 30 9465.80859375
v -2101.9775390625 30 9365.80859375
v -2201.9775390625 30 9365.80859375
vt 0 0
vt 0 0.5652170777320862
vt 0.25 0
vt 0.25 0.5652170777320862
vt 0.25 0
vt 0.25 0.5652170777320862
vt 0.5 0
vt 0.5 0.5652170777320862
vt 0.5 0
vt 0.5 0.5652170777320862
vt 0.75 0
vt 0.75 0.5652170777320862
vt 0.75 0
vt 0.75 0.5652170777320862
vt 1 0
vt 1 0.5652170777320862
vt 0 1
vt 0.25 1
vt 0.25 0.5652176141738892
vt 0 0.5652176141738892
vt 0.75 0.5652176141738892
vt 1 0.5652176141738892
vt 1 1
vt 0.75 1
vn 0 0 1
vn 0 0 1
vn 0 0 1
vn 0 0 1
vn 1 0 0
vn 1 0 0
vn 1 0 0
vn 1 0 0
vn 0 0 -1
vn 0 0 -1
vn 0 0 -1
vn 0 0 -1
vn -1 0 0
vn -1 0 0
vn -1 0 0
vn -1 0 0
vn 0 -1 0
vn 0 -1 0
vn 0 -1 0
vn 0 -1 0
vn 0 1 0
vn 0 1 0
vn 0 1 0
vn 0 1 0
f 1/1/1 3/3/3 4/4/4 2/2/2
f 5/5/5 7/7/7 8/8/8 6/6/6
f 9/9/9 11/11/11 12/12/12 10/10/10
f 13/13/13 15/15/15 16/16/16 14/14/14
f 18/18/18 17/17/17 20/20/20
f 20/20/20 19/19/19 18/18/18
f 22/22/22 24/24/24 21/21/21
f 24/24/24 22/22/22 23/23/23
